<?xml version="1.0" encoding="utf-8"?>
<!-- Generator: Adobe Illustrator 24.3.0, SVG Export Plug-In . SVG Version: 6.00 Build 0)  -->
<svg version="1.1" id="Layer_1" xmlns="http://www.w3.org/2000/svg" xmlns:xlink="http://www.w3.org/1999/xlink" x="0px" y="0px"
	 viewBox="0 0 50 50" style="enable-background:new 0 0 50 50;" xml:space="preserve">
<style type="text/css">
	.st0{display:none;}
	.st1{display:inline;fill:#00ADEE;}
	.st2{fill:#FFFFFF;}
</style>
<g class="st0">
	<path class="st1" d="M30.74,19.73c4.04-2.36,8.24-2.75,12.61-1.06c0.65,0.25,1.26,0.59,1.92,0.91c-0.03-0.09-0.03-0.14-0.05-0.18
		c-1.1-2.21-2.21-4.41-3.31-6.62c-0.08-0.16-0.16-0.31-0.31-0.42c-0.6-0.46-1.23-0.88-1.94-1.17c-1.57-0.64-3.21-0.81-4.88-0.73
		c-1.73,0.08-3.28,0.58-4.62,1.73c-0.42,0.36-0.64,0.77-0.71,1.3c-0.13,0.91-0.28,1.81-0.43,2.72C29,16.33,29,16.52,28.81,16.51
		c-0.46-0.03-0.93,0.12-1.38-0.18c-1.48-0.97-3.05-0.94-4.57-0.13c-0.43,0.23-0.83,0.31-1.29,0.33c-0.33,0.01-0.46-0.08-0.51-0.42
		c-0.16-0.99-0.37-1.98-0.54-2.97c-0.06-0.37-0.23-0.63-0.53-0.87c-2.93-2.36-8.08-2.7-11.59,0.07c-0.12,0.09-0.22,0.23-0.29,0.37
		c-1.1,2.26-2.2,4.53-3.37,6.94c0.29-0.15,0.45-0.22,0.6-0.3c3.31-1.72,6.77-2.13,10.37-1.15c2.11,0.58,4,1.53,5.39,3.33
		c1.13,1.47,2.39,2.84,3.58,4.26c0.25,0.3,0.38,0.28,0.61-0.01c1.22-1.54,2.46-3.05,3.78-4.51C29.59,20.72,30.07,20.12,30.74,19.73z
		"/>
	<path class="st1" d="M12,19.92C5.45,19.9,0.08,25.27,0.09,31.82c0.01,6.55,5.32,11.85,11.88,11.87c6.58,0.01,11.9-5.3,11.89-11.89
		C23.85,25.24,18.56,19.93,12,19.92z M11.98,39.62c-4.36,0-7.92-3.56-7.92-7.93c0-4.37,3.55-7.92,7.92-7.91
		c4.41,0.01,7.91,3.5,7.91,7.91C19.91,36.04,16.34,39.62,11.98,39.62z"/>
	<path class="st1" d="M38.01,19.92c-6.55,0.01-11.84,5.3-11.87,11.86C26.12,38.35,31.42,43.67,38,43.69
		c6.57,0.01,11.9-5.3,11.91-11.87C49.92,25.27,44.56,19.91,38.01,19.92z M37.95,39.62c-4.35-0.03-7.88-3.63-7.85-8.01
		c0.03-4.32,3.62-7.86,7.96-7.84c4.42,0.02,7.89,3.51,7.88,7.93C45.92,36.1,42.34,39.65,37.95,39.62z"/>
	<path class="st1" d="M38.92,8.43c-0.99-1.54-3.13-2.38-5.05-2C32.32,6.74,30.79,8,30.57,9.15C34.13,7.97,33.92,7.78,38.92,8.43z"/>
	<path class="st1" d="M19.45,9.15c-0.94-1.79-2.38-2.78-4.39-2.84c-1.67-0.04-2.95,0.72-3.94,2.06C13.99,7.73,16.76,7.96,19.45,9.15
		z"/>
</g>
<g>
	<path class="st2" d="M0.13,24.77c0.25-0.5,0.18-1.06,0.28-1.59C1.98,14.61,6.77,8.54,14.84,5.3c6.53-2.63,13.03-2.11,19.29,1.12
		c0.23,0.12,0.39,0.22,0.34,0.54c-0.25,1.68-0.47,3.37-0.7,5.05c-0.01,0.09-0.04,0.19-0.07,0.32c-4.71-3.23-9.82-4.2-15.31-2.7
		c-4.21,1.15-7.54,3.62-9.97,7.23c-4.82,7.14-3.78,16.81,2.41,22.72c6.38,6.1,16,6.75,23.02,1.5c3.88-2.9,6.25-6.79,6.99-11.59
		c0.74-4.8-0.37-9.19-3.18-13.2c1.17-0.16,2.3-0.32,3.42-0.47c0.59-0.08,1.2-0.13,1.78-0.25c0.4-0.09,0.6,0.01,0.79,0.38
		c2.3,4.44,3.21,9.13,2.43,14.07c-1.36,8.62-6.1,14.78-14.13,18.12C20.2,53.05,6.83,47.4,1.89,35.67C1,33.55,0.47,31.34,0.23,29.05
		c-0.01-0.1,0.05-0.24-0.1-0.29c0-0.13,0-0.26,0-0.39c0.06-0.06,0.05-0.14,0.05-0.21c0-0.06,0-0.11,0-0.17
		c0-0.07,0.01-0.15-0.05-0.21c0-0.65,0-1.3,0-1.95c0.08-0.08,0.04-0.19,0.05-0.28c0-0.06,0-0.12,0-0.18c0-0.08,0.02-0.16-0.05-0.22
		C0.13,25.03,0.13,24.9,0.13,24.77z"/>
	<path class="st2" d="M0.21,25.55c0.01,0.11,0.04,0.23-0.08,0.3c0-0.1,0-0.19,0-0.29C0.15,25.51,0.18,25.51,0.21,25.55z"/>
	<path class="st2" d="M0.13,25.16c0.12,0.02,0.09,0.11,0.08,0.19c-0.02,0.05-0.05,0.05-0.08,0.01C0.13,25.29,0.13,25.23,0.13,25.16z
		"/>
	<path class="st2" d="M0.13,25.36c0.03,0,0.05,0,0.08-0.01c0,0.06,0,0.13,0,0.19c-0.03,0-0.06,0.01-0.08,0.01
		C0.13,25.49,0.13,25.42,0.13,25.36z"/>
	<path class="st2" d="M0.13,27.79c0.09,0.04,0.1,0.12,0.08,0.2c-0.03,0.04-0.06,0.03-0.08-0.01C0.13,27.92,0.13,27.86,0.13,27.79z"
		/>
	<path class="st2" d="M0.13,27.99c0.03,0,0.05,0.01,0.08,0.01c0,0.06,0,0.13,0,0.19c-0.03,0.04-0.06,0.04-0.08-0.01
		C0.13,28.12,0.13,28.05,0.13,27.99z"/>
	<path class="st2" d="M0.13,28.18c0.03,0,0.05,0,0.08,0.01c0.01,0.08,0.04,0.17-0.08,0.19C0.13,28.31,0.13,28.25,0.13,28.18z"/>
	<path class="st2" d="M23.35,11.87c3.23,0.03,6.24,1.05,8.93,3.05c0.38,0.28,0.34,0.43,0.03,0.73c-1.05,1.01-2.08,2.05-3.1,3.09
		c-0.22,0.23-0.36,0.21-0.6,0.05c-5.92-3.95-13.89-0.43-14.93,6.6c-0.8,5.41,3.17,10.47,8.6,10.98c6.14,0.57,11.2-4.55,10.53-10.69
		c-0.17-1.54-0.69-2.96-1.57-4.24c-0.19-0.27-0.22-0.42,0.04-0.68c1.07-1.04,2.13-2.09,3.17-3.16c0.26-0.27,0.37-0.2,0.56,0.05
		c2.15,2.84,3.24,6.03,3.1,9.6c-0.26,6.64-4.64,12.16-10.98,13.91c-8.33,2.31-17-3.14-18.56-11.66
		c-1.48-8.06,3.73-15.76,11.75-17.37C21.29,11.96,22.26,11.89,23.35,11.87z"/>
	<path class="st2" d="M26.81,21.13c-1.42,1.42-2.83,2.86-4.27,4.25c-0.32,0.31-0.28,0.47,0.02,0.74c0.5,0.46,0.98,0.94,1.45,1.44
		c0.21,0.23,0.32,0.2,0.53-0.01c1.43-1.45,2.88-2.89,4.32-4.34c1.4,1.76,1.8,5.64-0.86,8.31c-2.53,2.53-6.56,2.65-9.24,0.27
		c-2.69-2.39-3.02-6.43-0.75-9.24C20.43,19.56,24.44,19.49,26.81,21.13z"/>
	<path class="st2" d="M43.96,0.09c0.49,1.31,0.97,2.56,1.41,3.83c0.14,0.39,0.35,0.59,0.74,0.73c1.26,0.44,2.51,0.92,3.76,1.39
		c0,0.19-0.15,0.26-0.25,0.36c-1.96,1.96-3.92,3.92-5.87,5.88c-0.21,0.21-0.43,0.31-0.72,0.35c-2.04,0.27-4.07,0.55-6.11,0.84
		c-0.38,0.06-0.42-0.03-0.37-0.39c0.3-2.05,0.57-4.1,0.85-6.16c0.03-0.21,0.08-0.4,0.24-0.56c2.04-2.03,4.08-4.08,6.12-6.11
		C43.82,0.2,43.87,0.16,43.96,0.09z"/>
</g>
<g class="st0">
	<path class="st1" d="M2.52,27.75c-0.01-3.53,3.77-6.23,6.76-4.97c0.62,0.26,1.14,0.67,1.62,1.14c5.06,5.06,10.13,10.12,15.18,15.19
		c2.04,2.05,1.93,4.77-0.26,6.94c-1.9,1.89-4.7,1.88-6.63-0.04C14.13,40.96,9.07,35.9,4.01,30.84C3.11,29.94,2.55,28.9,2.52,27.75z"
		/>
	<path class="st1" d="M22.45,7.86c0-3.81,4.14-6.47,7.16-4.8c0.41,0.22,0.77,0.5,1.1,0.83c5.14,5.14,10.29,10.27,15.42,15.43
		c1.58,1.59,1.76,3.94,0.54,5.73c-1.45,2.14-3.77,2.99-5.89,2.16c-0.63-0.24-1.17-0.62-1.64-1.1C34.07,21.04,29,15.96,23.92,10.89
		C23.02,9.99,22.47,8.95,22.45,7.86z"/>
	<path class="st1" d="M35.75,0.09c0.97,0.03,1.81,0.35,2.49,1.04c3.55,3.54,7.11,7.08,10.63,10.65c1.41,1.43,1.38,3.5,0.01,4.98
		c-0.35,0.38-0.75,0.71-1.09,1.1c-0.25,0.29-0.39,0.24-0.64-0.01c-2.74-2.76-5.49-5.51-8.24-8.26c-2.24-2.24-4.49-4.48-6.74-6.71
		c-0.26-0.26-0.33-0.41-0.02-0.68c0.49-0.42,0.91-0.91,1.4-1.33C34.18,0.33,34.94,0.11,35.75,0.09z"/>
	<path class="st1" d="M14.3,49.91c-1.02-0.03-1.86-0.36-2.55-1.04c-3.54-3.53-7.08-7.05-10.6-10.6C-0.3,36.8-0.26,34.7,1.16,33.2
		c0.34-0.36,0.73-0.69,1.05-1.06c0.26-0.3,0.4-0.21,0.64,0.02c3.04,3.06,6.09,6.11,9.15,9.16c1.94,1.94,3.88,3.89,5.84,5.81
		c0.28,0.27,0.3,0.42,0,0.68c-0.49,0.42-0.91,0.91-1.4,1.33C15.81,49.68,15.05,49.88,14.3,49.91z"/>
	<path class="st1" d="M22.07,32.58c-0.1-0.09-0.18-0.17-0.26-0.24c-1.38-1.38-2.76-2.77-4.15-4.14c-0.24-0.24-0.18-0.35,0.02-0.56
		c3.32-3.31,6.63-6.62,9.94-9.94c0.23-0.23,0.35-0.27,0.6-0.02c1.35,1.38,2.72,2.75,4.11,4.11c0.26,0.26,0.2,0.38-0.02,0.6
		c-3.31,3.29-6.6,6.6-9.9,9.89C22.3,32.38,22.18,32.47,22.07,32.58z"/>
	<path class="st1" d="M49.12,4.34c-0.02,0.88-0.38,1.6-0.99,2.21c-0.31,0.31-0.61,0.83-0.95,0.87c-0.37,0.04-0.65-0.53-0.96-0.83
		c-1.16-1.14-2.29-2.3-3.45-3.43c-0.23-0.23-0.27-0.35-0.01-0.6c0.67-0.63,1.25-1.36,2.21-1.59C46.94,0.5,49.11,2.27,49.12,4.34z"/>
	<path class="st1" d="M4.56,49.12c-1.62-0.02-2.86-0.89-3.4-2.25c-0.54-1.35-0.24-2.51,0.81-3.51c0.9-0.86,0.89-0.88,1.77,0.01
		c1.16,1.16,2.31,2.33,3.48,3.48c0.24,0.24,0.3,0.38,0.02,0.64c-0.47,0.44-0.92,0.9-1.48,1.24C5.32,48.97,4.85,49.12,4.56,49.12z"/>
</g>
</svg>
