<?xml version="1.0" encoding="utf-8"?>
<!-- Generator: Adobe Illustrator 24.3.0, SVG Export Plug-In . SVG Version: 6.00 Build 0)  -->
<svg version="1.1" id="Layer_1" xmlns="http://www.w3.org/2000/svg" xmlns:xlink="http://www.w3.org/1999/xlink" x="0px" y="0px"
	 viewBox="0 0 100 100" style="enable-background:new 0 0 100 100;" xml:space="preserve">
<style type="text/css">
	.st0{fill:#693EAA;}
	.st1{fill:#64DFFF;}
	.st2{fill:url(#SVGID_1_);}
	.st3{fill:url(#SVGID_2_);}
	.st4{fill:url(#SVGID_3_);}
	.st5{fill:url(#SVGID_4_);}
	.st6{fill:url(#SVGID_5_);}
	.st7{fill:url(#SVGID_6_);}
	.st8{fill:url(#SVGID_7_);}
	.st9{fill:url(#SVGID_8_);}
	.st10{fill:url(#SVGID_9_);}
	.st11{fill:url(#SVGID_10_);}
	.st12{fill:url(#SVGID_11_);}
	.st13{fill:url(#SVGID_12_);}
	.st14{fill:url(#SVGID_13_);}
	.st15{fill:url(#SVGID_14_);}
	.st16{fill:url(#SVGID_15_);}
	.st17{fill:url(#SVGID_16_);}
	.st18{fill:url(#SVGID_17_);}
	.st19{fill:url(#SVGID_18_);}
	.st20{fill:url(#SVGID_19_);}
	.st21{fill:url(#SVGID_20_);}
	.st22{fill:url(#SVGID_21_);}
	.st23{fill:url(#SVGID_22_);}
	.st24{fill:url(#SVGID_23_);}
	.st25{fill:url(#SVGID_24_);}
	.st26{fill:url(#SVGID_25_);}
	.st27{fill:url(#SVGID_26_);}
	.st28{fill:url(#SVGID_27_);}
	.st29{fill:url(#SVGID_28_);}
	.st30{fill:url(#SVGID_29_);}
	.st31{fill:url(#SVGID_30_);}
	.st32{fill:url(#SVGID_31_);}
	.st33{fill:url(#SVGID_32_);}
	.st34{fill:url(#SVGID_33_);}
</style>
<g>
	<g>
		<linearGradient id="SVGID_1_" gradientUnits="userSpaceOnUse" x1="0.2469" y1="50" x2="99.7531" y2="50">
			<stop  offset="0" style="stop-color:#693EAA"/>
			<stop  offset="1" style="stop-color:#64DFFF"/>
		</linearGradient>
		<path class="st2" d="M99.75,94.83c0.01-0.56-0.17-0.7-0.71-0.69c-1.98,0.03-3.97,0.01-5.95,0.01c-1.35,0-1.35,0-1.35-1.3
			c0-8.43-0.01-16.86,0.02-25.28c0-0.71-0.14-0.93-0.89-0.93c-6.08,0.04-12.16,0.04-18.23,0c-0.83-0.01-1,0.24-1,1.03
			c0.03,8.43,0,16.86,0.04,25.28c0,0.92-0.13,1.28-1.17,1.23c-2.08-0.1-4.16-0.09-6.24,0c-0.9,0.04-1.03-0.25-1.03-1.07
			c0.03-13.34,0.01-26.68,0.04-40.02c0-0.9-0.26-1.05-1.08-1.04c-5.95,0.04-11.9,0.04-17.84,0c-0.96-0.01-1.22,0.19-1.22,1.2
			c0.04,13.34,0.02,26.68,0.04,40.02c0,0.71-0.14,0.93-0.89,0.91c-2.14-0.06-4.29-0.06-6.43,0c-0.85,0.02-1.12-0.15-1.12-1.08
			c0.03-18.16,0.02-36.31,0.05-54.47c0-0.9-0.15-1.19-1.13-1.18c-5.95,0.05-11.9,0.05-17.84,0c-0.93-0.01-1.16,0.2-1.16,1.15
			c0.03,18.19,0.02,36.38,0.04,54.57c0,0.79-0.15,1.04-0.99,1.02c-2.18-0.07-4.36-0.07-6.53,0c-0.9,0.03-1.09-0.24-1.09-1.11
			C6.12,62.48,6.11,31.89,6.11,1.3c0-0.23-0.02-0.46,0-0.68C6.18,0.15,6,0.01,5.53,0.02c-1.4,0.03-2.8,0.07-4.19-0.01
			C0.43-0.05,0.25,0.25,0.25,1.11C0.27,34.07,0.27,67.04,0.27,100c33.16,0,66.32,0,99.47,0C99.74,98.28,99.72,96.55,99.75,94.83z
			 M28.93,68.77c0,8.13-0.01,16.26,0.02,24.39c0,0.81-0.18,1.03-1,1.01c-2.14-0.06-4.29-0.06-6.43,0c-0.79,0.02-1.02-0.15-1.01-0.99
			c0.03-10.73,0.02-21.47,0.02-32.2c0-5.59,0.01-11.19-0.02-16.78c0-0.71,0.14-0.94,0.89-0.92c2.18,0.06,4.35,0.06,6.53,0
			c0.79-0.02,1.02,0.16,1.02,0.99C28.91,52.44,28.93,60.61,28.93,68.77z M56.69,94.16c-2.31-0.02-4.61-0.04-6.92,0.01
			c-0.7,0.02-0.76-0.25-0.76-0.83c0.02-5.75,0.01-11.51,0.01-17.26c0-5.76,0.01-11.51-0.02-17.26c0-0.71,0.14-0.95,0.89-0.93
			c2.27,0.06,4.55,0.04,6.82,0.01c0.54-0.01,0.71,0.14,0.71,0.7c-0.02,11.64-0.02,23.28,0,34.92
			C57.43,94.14,57.17,94.16,56.69,94.16z M85.92,93.48c0,0.57-0.18,0.69-0.71,0.68c-2.31-0.03-4.62-0.04-6.92,0
			c-0.65,0.01-0.8-0.18-0.79-0.81c0.03-3.35,0.01-6.7,0.01-10.05c0-3.32,0.02-6.64-0.02-9.96c-0.01-0.69,0.18-0.87,0.86-0.86
			c2.24,0.04,4.49,0.03,6.73,0.01c0.58-0.01,0.85,0.07,0.84,0.77C85.9,80,85.9,86.74,85.92,93.48z"/>
	</g>
	<g>
		<linearGradient id="SVGID_2_" gradientUnits="userSpaceOnUse" x1="20.6788" y1="30.1648" x2="91.2822" y2="30.1648">
			<stop  offset="0" style="stop-color:#693EAA"/>
			<stop  offset="1" style="stop-color:#64DFFF"/>
		</linearGradient>
		<path class="st3" d="M28.63,19.44C39.28,29.62,51.65,36.85,65.76,41.1c4.4,1.33,8.88,2.32,13.46,2.95
			c-0.11,0.41-0.46,0.5-0.7,0.67c-1.66,1.19-3.33,2.37-5.02,3.53c-0.4,0.28-0.5,0.45-0.18,0.89c0.91,1.23,1.78,2.48,2.63,3.75
			c0.27,0.41,0.46,0.5,0.9,0.18c4.69-3.33,9.39-6.64,14.09-9.93c0.38-0.26,0.44-0.44,0.16-0.83c-3.17-4.48-6.33-8.97-9.47-13.47
			c-0.29-0.41-0.47-0.37-0.82-0.12c-1.18,0.86-2.36,1.73-3.59,2.51c-0.61,0.39-0.64,0.65-0.22,1.23c1.38,1.88,2.69,3.8,4.12,5.84
			c-0.34,0-0.47,0.01-0.6,0c-0.68-0.07-1.36-0.13-2.03-0.24c-11.42-1.9-22.08-5.84-31.91-11.99c-8-5.01-14.99-11.18-20.95-18.5
			c-0.42-0.52-0.68-0.7-1.27-0.17c-1.03,0.94-2.15,1.79-3.27,2.63c-0.49,0.37-0.56,0.59-0.14,1.11
			C23.37,14.04,25.9,16.83,28.63,19.44z"/>
	</g>
</g>
</svg>
