<?xml version="1.0" encoding="utf-8"?>
<!-- Generator: Adobe Illustrator 24.3.0, SVG Export Plug-In . SVG Version: 6.00 Build 0)  -->
<svg version="1.1" id="Layer_1" xmlns="http://www.w3.org/2000/svg" xmlns:xlink="http://www.w3.org/1999/xlink" x="0px" y="0px"
	 viewBox="0 0 100 100" style="enable-background:new 0 0 100 100;" xml:space="preserve">
<style type="text/css">
	.st0{fill:#693EAA;}
	.st1{fill:#64DFFF;}
	.st2{fill:url(#SVGID_1_);}
	.st3{fill:url(#SVGID_2_);}
	.st4{fill:url(#SVGID_3_);}
	.st5{fill:url(#SVGID_4_);}
	.st6{fill:url(#SVGID_5_);}
	.st7{fill:url(#SVGID_6_);}
	.st8{fill:url(#SVGID_7_);}
	.st9{fill:url(#SVGID_8_);}
	.st10{fill:url(#SVGID_9_);}
	.st11{fill:url(#SVGID_10_);}
	.st12{fill:url(#SVGID_11_);}
	.st13{fill:url(#SVGID_12_);}
	.st14{fill:url(#SVGID_13_);}
	.st15{fill:url(#SVGID_14_);}
	.st16{fill:url(#SVGID_15_);}
	.st17{fill:url(#SVGID_16_);}
	.st18{fill:url(#SVGID_17_);}
	.st19{fill:url(#SVGID_18_);}
	.st20{fill:url(#SVGID_19_);}
	.st21{fill:url(#SVGID_20_);}
	.st22{fill:url(#SVGID_21_);}
	.st23{fill:url(#SVGID_22_);}
	.st24{fill:url(#SVGID_23_);}
	.st25{fill:url(#SVGID_24_);}
	.st26{fill:url(#SVGID_25_);}
	.st27{fill:url(#SVGID_26_);}
	.st28{fill:url(#SVGID_27_);}
	.st29{fill:url(#SVGID_28_);}
	.st30{fill:url(#SVGID_29_);}
	.st31{fill:url(#SVGID_30_);}
	.st32{fill:url(#SVGID_31_);}
</style>
<g>
	<g>
		<linearGradient id="SVGID_1_" gradientUnits="userSpaceOnUse" x1="9.094947e-13" y1="55.6771" x2="100" y2="55.6771">
			<stop  offset="0" style="stop-color:#693EAA"/>
			<stop  offset="1" style="stop-color:#64DFFF"/>
		</linearGradient>
		<path class="st2" d="M99.99,27.37c-0.18-4.56-3.94-9.01-10.08-8.56c-0.77,0.06-1.28,0.5-1.4,1.27c-0.11,0.69,0.23,1.22,0.84,1.5
			c0.31,0.14,0.7,0.12,1.05,0.13c4.31,0.04,6.67,2.43,6.67,6.75c0,18.19,0,36.39,0,54.58c0,4.16-2.44,6.59-6.62,6.59
			c-26.98,0-53.96,0-80.94,0c-4.15,0-6.59-2.45-6.59-6.62c0-14.55,0-29.1,0-43.65c0-0.83-0.07-1.57-0.98-1.92
			C1.03,37.1,0.51,37.68,0,38.28c0,15.3,0,30.6,0,45.9c0.26,0.3,0.24,0.65,0.18,1c0.63,4.3,4.43,7.38,9.17,7.38
			c27.11,0.01,54.22,0,81.33,0.01c0.85,0,1.69-0.07,2.51-0.28c4.14-1.04,6.81-4.54,6.81-8.97c0.01-18.42,0-36.85,0-55.27
			C100,27.83,100,27.6,99.99,27.37z"/>
	</g>
	<g>
		<linearGradient id="SVGID_2_" gradientUnits="userSpaceOnUse" x1="9.094947e-13" y1="20.7321" x2="69.9187" y2="20.7321">
			<stop  offset="0" style="stop-color:#693EAA"/>
			<stop  offset="1" style="stop-color:#64DFFF"/>
		</linearGradient>
		<path class="st3" d="M1.91,33.95c0.89-0.29,1.03-1.04,1.02-1.89c-0.02-5.05-0.01-10.09-0.01-15.14c0-4.1,2.45-6.56,6.55-6.56
			c9.15,0,18.29,0.01,27.44-0.01c1.47,0,2.81,0.34,4.09,1.07c5.31,3,10.64,5.97,15.96,8.97c1,0.56,2.03,1.08,3.17,1.19
			c2.85,0.29,5.72,0.12,8.58,0.09c0.69-0.01,1.1-0.55,1.19-1.23c0.09-0.69-0.22-1.2-0.85-1.5c-0.36-0.17-0.76-0.16-1.15-0.16
			c-1.92,0-3.84-0.02-5.76,0.01c-1.37,0.02-2.61-0.33-3.81-1.01c-5.31-3-10.65-5.97-15.96-8.97c-1.68-0.95-3.46-1.43-5.4-1.4
			c-2.02,0.03-4.04,0.01-6.05,0.01c-7.26,0-14.52-0.02-21.78,0.01c-4.59,0.01-8.35,3.14-8.97,7.37c0.07,0.36,0.08,0.7-0.17,1
			c0,5.73,0,11.46,0,17.19C0.43,33.74,1.02,34.24,1.91,33.95z"/>
	</g>
	<g>
		<linearGradient id="SVGID_3_" gradientUnits="userSpaceOnUse" x1="9.094947e-13" y1="15.3192" x2="0.1747" y2="15.3192">
			<stop  offset="0" style="stop-color:#693EAA"/>
			<stop  offset="1" style="stop-color:#64DFFF"/>
		</linearGradient>
		<path class="st4" d="M0.17,14.82C0.12,14.84,0.06,14.85,0,14.84c0,0.33,0,0.65,0,0.98C0.24,15.52-0.02,15.13,0.17,14.82z"/>
	</g>
	<g>
		<linearGradient id="SVGID_4_" gradientUnits="userSpaceOnUse" x1="9.094947e-13" y1="84.6866" x2="0.1751" y2="84.6866">
			<stop  offset="0" style="stop-color:#693EAA"/>
			<stop  offset="1" style="stop-color:#64DFFF"/>
		</linearGradient>
		<path class="st5" d="M0,84.19c0,0.33,0,0.65,0,0.98l0.09,0l0.09,0.03C-0.02,84.88,0.24,84.49,0,84.19z"/>
	</g>
	<g>
		<linearGradient id="SVGID_5_" gradientUnits="userSpaceOnUse" x1="28.8527" y1="53.7151" x2="71.1208" y2="53.7151">
			<stop  offset="0" style="stop-color:#693EAA"/>
			<stop  offset="1" style="stop-color:#64DFFF"/>
		</linearGradient>
		<path class="st6" d="M48.1,74.78c12.32,1.12,23.03-8.67,23.02-21.37c0.02-1.32-0.16-2.93-0.56-4.51c-0.26-1.04-0.93-1.57-1.76-1.4
			c-0.89,0.19-1.3,0.95-1.06,2.05c0.53,2.44,0.61,4.9,0.19,7.37c-1.75,10.2-12,16.93-22.14,14.53c-10.1-2.39-16.21-12.9-13.29-22.82
			c2.64-8.99,12.07-15.22,22.44-12.45c1.05,0.28,1.81-0.08,2.05-0.9c0.26-0.88-0.24-1.59-1.32-1.9
			c-12.62-3.59-25.59,5.34-26.75,18.41C27.91,63.41,36.51,73.72,48.1,74.78z"/>
	</g>
	<g>
		<linearGradient id="SVGID_6_" gradientUnits="userSpaceOnUse" x1="37.4627" y1="44.1161" x2="76.4666" y2="44.1161">
			<stop  offset="0" style="stop-color:#693EAA"/>
			<stop  offset="1" style="stop-color:#64DFFF"/>
		</linearGradient>
		<path class="st7" d="M67.89,28.94c-3.6,3.53-7.2,7.06-10.8,10.59c-2.83,2.78-5.66,5.56-8.51,8.35c-0.45-0.48-0.85-0.9-1.25-1.33
			c-0.42-0.45-0.83-0.92-1.27-1.36c-1.09-1.11-2.3-1.17-3.44-0.13c-1.47,1.33-2.92,2.69-4.34,4.07c-1.03,1-1.08,2.24-0.11,3.3
			c2.13,2.33,4.31,4.62,6.47,6.92c0.66,0.7,1.44,1.05,2.43,0.99c0.97-0.06,1.95-0.04,2.93,0c0.73,0.03,1.35-0.18,1.86-0.68
			c2.82-2.75,5.64-5.49,8.44-8.26c0.65-0.64,0.61-1.51,0.02-2.09c-0.65-0.63-1.45-0.58-2.24,0.19c-2.14,2.09-4.36,4.12-6.38,6.32
			c-1.17,1.27-2.41,1.8-4.09,1.62c-0.59-0.06-1.01-0.2-1.42-0.65c-1.21-1.36-2.48-2.67-3.72-4.01c-0.57-0.62-1.58-1.24-1.59-1.87
			c-0.01-0.73,1.12-1.22,1.73-1.84c0.51-0.5,1.05-1.33,1.59-1.34c0.63-0.01,1.04,0.96,1.57,1.47c0.26,0.25,0.49,0.52,0.74,0.78
			c1.39,1.47,2.55,1.5,3.99,0.09c2.31-2.25,4.6-4.51,6.9-6.77c3.95-3.87,7.91-7.73,11.84-11.63c0.5-0.49,0.76-0.47,1.2,0.02
			c0.71,0.8,1.46,1.58,2.25,2.3c0.53,0.48,0.45,0.73-0.03,1.2c-3.25,3.14-6.47,6.32-9.7,9.49c-0.82,0.81-0.9,1.65-0.26,2.3
			c0.65,0.66,1.47,0.6,2.31-0.22c3.51-3.44,7.02-6.87,10.52-10.32c1.2-1.19,1.21-2.44,0.03-3.66c-1.24-1.29-2.5-2.56-3.76-3.83
			C70.44,27.54,69.32,27.54,67.89,28.94z"/>
	</g>
	<g>
		<linearGradient id="SVGID_7_" gradientUnits="userSpaceOnUse" x1="34.5232" y1="61.7965" x2="76.9764" y2="61.7965">
			<stop  offset="0" style="stop-color:#693EAA"/>
			<stop  offset="1" style="stop-color:#64DFFF"/>
		</linearGradient>
		<path class="st8" d="M35.62,76.55c5.6,3.48,11.68,4.78,18.2,3.88c13.24-1.83,23.15-13.31,23.15-27.04
			c0.03-0.88-0.07-2.05-0.22-3.21c-0.28-2.13-0.8-4.21-1.58-6.21c-0.35-0.91-1.13-1.28-1.95-0.97c-0.77,0.29-1.08,1.09-0.77,2.03
			c0.04,0.12,0.09,0.24,0.13,0.37c1.48,4.09,1.84,8.28,1.08,12.57C71.24,71.67,57.52,80.5,44.02,77.01c-2.54-0.66-4.9-1.69-7.1-3.11
			c-0.63-0.41-1.29-0.47-1.89,0.03c-0.51,0.42-0.6,1-0.42,1.6C34.76,76.04,35.2,76.29,35.62,76.55z"/>
	</g>
	<g>
		<linearGradient id="SVGID_8_" gradientUnits="userSpaceOnUse" x1="71.9586" y1="17.0265" x2="86.3563" y2="17.0265">
			<stop  offset="0" style="stop-color:#693EAA"/>
			<stop  offset="1" style="stop-color:#64DFFF"/>
		</linearGradient>
		<path class="st9" d="M73.24,19.08c1.58,0.94,2.78,2.19,3.72,3.76c1.02,1.71,3.14,1.81,4.27,0.19c1.08-1.54,2.37-2.83,3.95-3.85
			c0.76-0.49,1.18-1.19,1.18-1.97c0.01-1.15-0.45-1.88-1.3-2.38c-1.6-0.94-2.88-2.17-3.89-3.75c-1.03-1.63-3.16-1.64-4.22-0.03
			c-1.01,1.52-2.26,2.74-3.77,3.75C71.53,15.9,71.56,18.08,73.24,19.08z M79.04,13.18c1.12,1.64,2.47,2.85,4.04,3.89
			c-1.53,1.06-2.81,2.29-3.89,3.79c-1.03-1.61-2.26-2.93-3.89-3.94C76.76,15.86,78.01,14.7,79.04,13.18z"/>
	</g>
	<g>
		<linearGradient id="SVGID_9_" gradientUnits="userSpaceOnUse" x1="76.6814" y1="75.944" x2="91.077" y2="75.944">
			<stop  offset="0" style="stop-color:#693EAA"/>
			<stop  offset="1" style="stop-color:#64DFFF"/>
		</linearGradient>
		<path class="st10" d="M77.95,77.99c1.6,0.97,2.82,2.24,3.77,3.84c0.98,1.65,3.11,1.72,4.22,0.15c1.08-1.54,2.36-2.84,3.95-3.85
			c0.76-0.48,1.19-1.18,1.19-1.96c0.02-1.11-0.39-1.86-1.2-2.34c-1.65-0.98-2.98-2.25-4.03-3.88c-1.02-1.57-3.13-1.55-4.16,0.01
			c-1,1.52-2.25,2.75-3.77,3.75C76.26,74.8,76.27,76.97,77.95,77.99z M83.53,72.43c0.21-0.29,0.34-0.19,0.5,0.04
			c0.99,1.39,2.24,2.5,3.77,3.52c-1.54,1.1-2.82,2.29-3.88,3.79c-1.05-1.6-2.26-2.92-3.9-3.94C81.4,74.86,82.59,73.76,83.53,72.43z"
			/>
	</g>
	<g>
		<linearGradient id="SVGID_10_" gradientUnits="userSpaceOnUse" x1="23.0208" y1="56.9281" x2="32.6527" y2="56.9281">
			<stop  offset="0" style="stop-color:#693EAA"/>
			<stop  offset="1" style="stop-color:#64DFFF"/>
		</linearGradient>
		<path class="st11" d="M24.64,62.93c1.19,3.27,2.96,6.21,5.28,8.8c0.74,0.82,1.52,0.95,2.21,0.37c0.7-0.58,0.7-1.45-0.02-2.32
			c-0.29-0.35-0.61-0.68-0.88-1.04c-5.77-7.66-6.83-15.93-3.22-24.8c0.5-1.24,0.35-2-0.56-2.4c-0.87-0.39-1.57,0.03-2.12,1.25
			c-1.55,3.46-2.31,7.09-2.31,11.42C22.99,56.85,23.55,59.94,24.64,62.93z"/>
	</g>
	<g>
		<linearGradient id="SVGID_11_" gradientUnits="userSpaceOnUse" x1="23.9084" y1="32.8216" x2="36.3073" y2="32.8216">
			<stop  offset="0" style="stop-color:#693EAA"/>
			<stop  offset="1" style="stop-color:#64DFFF"/>
		</linearGradient>
		<path class="st12" d="M28.09,37.82c0.44,0.78,1.15,1.11,1.85,1.13c0.9-0.02,1.55-0.26,1.95-0.86c0.91-1.38,2.13-2.42,3.45-3.39
			c1.36-1,1.28-2.88-0.14-3.78c-1.35-0.85-2.44-1.89-3.33-3.21c-0.91-1.35-2.81-1.35-3.72-0.01c-0.88,1.29-1.95,2.31-3.22,3.2
			c-1.4,0.98-1.32,2.95,0.15,3.84C26.35,35.51,27.36,36.52,28.09,37.82z M29.98,30.18c0.84,1.02,1.75,1.93,2.85,2.7
			c-1.01,0.78-1.89,1.62-2.69,2.63c-0.78-1.04-1.63-1.97-2.75-2.77C28.39,31.98,29.21,31.15,29.98,30.18z"/>
	</g>
	<g>
		<linearGradient id="SVGID_12_" gradientUnits="userSpaceOnUse" x1="38.6318" y1="29.2405" x2="61.6907" y2="29.2405">
			<stop  offset="0" style="stop-color:#693EAA"/>
			<stop  offset="1" style="stop-color:#64DFFF"/>
		</linearGradient>
		<path class="st13" d="M40.83,31.45c6.21-2.44,12.4-2.42,18.58,0.11c1.03,0.42,1.84,0.11,2.17-0.76c0.31-0.83-0.06-1.5-1.1-1.94
			c-3.35-1.45-6.86-2.13-10.51-2.12c-3.56,0-6.95,0.67-10.15,1.98c-0.99,0.41-1.4,1.15-1.09,1.97
			C39.03,31.49,39.87,31.83,40.83,31.45z"/>
	</g>
</g>
</svg>
