<?xml version="1.0" encoding="utf-8"?>
<!-- Generator: Adobe Illustrator 24.3.0, SVG Export Plug-In . SVG Version: 6.00 Build 0)  -->
<svg version="1.1" id="Layer_1" xmlns="http://www.w3.org/2000/svg" xmlns:xlink="http://www.w3.org/1999/xlink" x="0px" y="0px"
	 viewBox="0 0 100 100" style="enable-background:new 0 0 100 100;" xml:space="preserve">
<style type="text/css">
	.st0{fill:#693EAA;}
	.st1{fill:#64DFFF;}
	.st2{fill:url(#SVGID_1_);}
	.st3{fill:url(#SVGID_2_);}
	.st4{fill:url(#SVGID_3_);}
	.st5{fill:url(#SVGID_4_);}
	.st6{fill:url(#SVGID_5_);}
	.st7{fill:url(#SVGID_6_);}
	.st8{fill:url(#SVGID_7_);}
	.st9{fill:url(#SVGID_8_);}
</style>
<g>
	<g>
		<linearGradient id="SVGID_1_" gradientUnits="userSpaceOnUse" x1="2.624512e-03" y1="49.9451" x2="99.9973" y2="49.9451">
			<stop  offset="0" style="stop-color:#693EAA"/>
			<stop  offset="1" style="stop-color:#64DFFF"/>
		</linearGradient>
		<path class="st2" d="M100,20.33c0.01-3.46-2.33-5.83-5.18-6.38c-0.92-0.18-1.86-0.28-2.81-0.28c-2.99,0.02-5.98,0.01-8.97,0
			c-0.27,0-0.57,0.11-0.88-0.16c0.44-0.49,0.93-0.91,1.35-1.4c0.92-1.07,0.97-2.62,0.03-3.65c-1.11-1.23-2.28-2.41-3.52-3.51
			c-1.19-1.06-2.57-1.01-3.8,0.03c-0.45,0.38-0.85,0.81-1.26,1.22c-0.44,0.45-0.91,0.58-1.49,0.28c-0.69-0.36-1.42-0.65-2.16-0.89
			c-0.54-0.17-0.78-0.53-0.78-1.09c0-0.65,0.04-1.3-0.03-1.95c-0.17-1.6-1.09-2.48-2.68-2.52c-1.66-0.03-3.32-0.04-4.97,0
			c-1.47,0.04-2.33,0.83-2.59,2.28c-0.07,0.42-0.06,0.84-0.06,1.26c-0.01,1.71-0.1,1.54-1.56,2.34c-1.67,0.91-2.77,0.66-3.99-0.76
			c-1.21-1.4-2.77-1.31-4.13-0.05c-1.09,1.02-2.15,2.08-3.17,3.17c-1.11,1.19-1.1,2.74-0.01,3.95c0.38,0.43,0.86,0.78,1.18,1.29
			c-0.41,0.25-0.81,0.15-1.19,0.15c-12.97,0.01-25.94,0.01-38.91,0.01c-0.46,0-0.91-0.01-1.37,0.01c-4.02,0.2-6.17,1.89-7.04,5.55
			c0,20.16,0,40.32,0,60.48c0.2,0.99,0.42,1.94,1.1,2.76c1.4,1.67,3.14,2.61,5.33,2.62c4.29,0.02,8.58,0.01,12.87,0
			c0.36,0,0.72-0.01,1.06-0.12c0.78-0.23,1.3-0.88,1.32-1.63c0.01-0.78-0.54-1.47-1.36-1.69c-0.48-0.13-0.97-0.1-1.45-0.1
			c-3.97,0-7.93,0.01-11.9-0.01c-2.47-0.01-3.7-1.26-3.73-3.74c-0.02-1.11,0-2.21,0-3.32c0-1.88,0-1.88,1.87-1.88
			c29.87,0,59.75,0,89.62,0c0.29,0,0.59,0.02,0.88,0c0.74-0.04,1.07,0.27,1.05,1.03c-0.02,1.14-0.01,2.28-0.01,3.41
			c0,3.51-1,4.5-4.54,4.5c-21.13,0-42.26,0-63.39,0c-0.49,0-0.98-0.02-1.46,0.02c-1.21,0.1-1.96,0.78-1.96,1.76
			c0,1.02,0.79,1.7,2.05,1.76c0.36,0.02,0.72,0.01,1.07,0.01c2.99,0,5.98-0.01,8.97,0c1.23,0,1.3,0.09,1.18,1.27
			c-0.05,0.49-0.04,0.97-0.06,1.46c-0.13,2.63-0.35,5.25-0.77,7.85c-0.13,0.79-0.5,1.12-1.3,1.09c-1.1-0.03-2.21-0.02-3.32,0
			c-0.6,0.01-1.17,0.12-1.61,0.57c-0.45,0.45-0.61,0.99-0.44,1.61c0.16,0.56,0.49,0.94,1.11,0.94c0-0.03,0-0.05-0.01-0.08
			c11.85,0,23.69,0,35.54,0c0,0.03,0,0.05-0.01,0.08c0.52-0.01,0.86-0.28,1.05-0.78c0.22-0.6,0.14-1.15-0.27-1.64
			c-0.41-0.48-0.96-0.65-1.57-0.67c-1.07-0.03-2.15-0.01-3.22-0.01c-1.32-0.01-1.38-0.06-1.61-1.4c-0.55-3.14-0.63-6.33-0.88-9.5
			c-0.04-0.54,0.2-0.78,0.73-0.8c0.33-0.01,0.65-0.01,0.98-0.01c10.08,0,20.16,0.01,30.23,0c4.17,0,6.84-2.68,6.84-6.81
			c0-5.75,0-11.51,0-17.26C99.98,47.44,99.96,33.89,100,20.33z M58.43,97.06c-2.86,0.01-5.72,0-8.58,0c-2.67,0-5.33-0.03-8,0.02
			c-0.79,0.01-1.1-0.03-0.91-1c0.66-3.45,0.79-6.97,0.94-10.48c0.03-0.69,0.24-0.83,0.9-0.83c4.78,0.03,9.56,0.03,14.34,0
			c0.66,0,0.87,0.13,0.9,0.83c0.16,3.67,0.32,7.34,1.01,10.96C59.15,97.23,58.74,97.06,58.43,97.06z M50.53,19.36
			c0.44-1.43,0.99-2.8,1.71-4.12c0.6-1.09,0.41-2.12-0.44-3.04c-0.04-0.05-0.1-0.09-0.14-0.14c-0.55-0.63-1.79-1.33-1.59-1.79
			c0.43-0.97,1.47-1.68,2.27-2.48c0.06-0.06,0.16-0.09,0.26-0.15c0.14,0.14,0.29,0.26,0.43,0.4c0.51,0.5,1,1.02,1.52,1.51
			c0.85,0.8,1.85,0.99,2.87,0.45c1.38-0.73,2.8-1.33,4.3-1.78c1.11-0.34,1.67-1.18,1.72-2.34c0-0.03,0-0.07,0-0.1
			c0.08-0.89-0.39-2.29,0.18-2.58c0.89-0.44,2.15-0.14,3.25-0.16c0.46-0.01,0.4,0.31,0.4,0.6c0,0.72-0.01,1.43,0,2.15
			c0.03,1.26,0.63,2.14,1.81,2.47c1.41,0.4,2.74,0.97,4.04,1.66c1.17,0.63,2.13,0.46,3.12-0.43c0.66-0.59,1.33-1.89,1.93-1.69
			c0.94,0.33,1.61,1.43,2.41,2.19c0.29,0.28,0.11,0.44-0.09,0.63c-0.55,0.55-1.12,1.09-1.65,1.66c-0.79,0.85-0.96,1.85-0.42,2.87
			c0.72,1.35,1.3,2.74,1.75,4.21c0.36,1.18,1.22,1.77,2.48,1.81c0.71,0.02,1.43,0.02,2.15,0c0.42-0.02,0.57,0.13,0.56,0.55
			c-0.03,0.97,0.31,2.13-0.1,2.88c-0.49,0.91-1.75,0.24-2.66,0.34c-1.27,0.14-2.07,0.66-2.44,1.87c-0.43,1.4-0.97,2.74-1.68,4.03
			c-0.63,1.15-0.45,2.15,0.46,3.11c0.49,0.52,0.99,1.03,1.52,1.51c0.31,0.28,0.36,0.51,0,0.77c-0.05,0.04-0.09,0.09-0.14,0.14
			c-0.69,0.68-1.32,1.8-2.1,1.93c-0.8,0.14-1.37-1.14-2.08-1.75c-0.88-0.75-1.84-0.98-2.87-0.42c-1.35,0.73-2.74,1.31-4.21,1.75
			c-1.21,0.37-1.76,1.19-1.79,2.48c-0.02,0.71-0.03,1.43,0,2.15c0.02,0.43-0.14,0.57-0.56,0.55c-0.91-0.02-1.82-0.03-2.73,0
			c-0.52,0.02-0.58-0.23-0.56-0.65c0.02-0.71,0.02-1.43,0-2.15c-0.03-1.18-0.58-1.99-1.69-2.34c-1.49-0.47-2.92-1.05-4.3-1.79
			c-1.05-0.56-1.99-0.38-2.87,0.41c-0.36,0.33-0.69,0.68-1.04,1.03c-0.97,0.97-0.98,0.98-1.91,0.03c-0.56-0.57-1.55-1.17-1.54-1.75
			c0.01-0.59,0.98-1.18,1.54-1.76c1.08-1.12,1.24-2.07,0.5-3.43c-0.66-1.2-1.15-2.46-1.56-3.77c-0.41-1.33-1.19-1.9-2.57-1.95
			c-0.03,0-0.07,0-0.1,0c-0.83-0.07-2.15,0.36-2.38-0.18c-0.4-0.94-0.15-2.16-0.17-3.26c-0.01-0.4,0.3-0.35,0.55-0.35
			c0.72,0,1.43,0.01,2.15-0.01C49.31,21.13,50.17,20.54,50.53,19.36z M6.11,68.25c0,0.83-0.15,1.11-1.05,1.08
			c-2.13-0.07-2.13-0.02-2.13-2.11c0-15.41,0-30.82,0-46.23c0-2.62,1.34-4.01,3.92-4.01c13.59-0.01,27.18,0,40.77,0
			c0.16,0,0.31,0.01,0.51,0.02c-0.04,1.07-0.53,1.38-1.45,1.25c-0.54-0.08-1.1-0.02-1.66-0.01c-1.37,0.03-2.24,0.64-2.5,1.97
			c-0.14,0.71-0.56,0.57-0.99,0.57c-10.4,0-20.81,0-31.21,0c-2.84,0-4.23,1.39-4.23,4.26C6.09,39.44,6.09,53.85,6.11,68.25z
			 M89.78,69.33c-13.3-0.03-26.59-0.02-39.89-0.02c-13.26,0-26.53-0.01-39.79,0.02c-0.81,0-1.1-0.13-1.09-1.04
			c0.03-14.37,0.02-28.74,0.02-43.11c0-1.37,0.08-1.45,1.41-1.46c10.34,0,20.68,0.01,31.02-0.02c0.84,0,1,0.23,0.98,1.02
			c-0.05,2.34,0.81,3.17,3.14,3.17c2.12,0.01,2.12,0.01,2.89,1.92c0.12,0.3,0.25,0.6,0.39,0.89c0.64,1.4,0.64,1.39-0.48,2.52
			c-0.34,0.35-0.71,0.68-1.02,1.05c-0.81,0.97-0.84,2.27,0.02,3.2c1.15,1.24,2.34,2.44,3.58,3.59c0.96,0.89,2.27,0.83,3.27-0.04
			c0.76-0.65,1.3-1.85,2.2-1.95c0.83-0.1,1.76,0.68,2.65,1.06c0.18,0.08,0.36,0.16,0.55,0.19c0.67,0.12,0.99,0.43,0.9,1.17
			c-0.08,0.64-0.04,1.3-0.01,1.95c0.07,1.56,1.04,2.52,2.61,2.55c1.5,0.02,2.99,0.02,4.49,0c1.53-0.03,2.48-0.95,2.59-2.47
			c0.07-0.97-0.37-2.16,0.17-2.85c0.5-0.63,1.68-0.7,2.54-1.08c1.49-0.65,1.48-0.67,2.62,0.47c0.3,0.3,0.59,0.61,0.9,0.89
			c1.06,0.96,2.38,1,3.42,0.03c1.18-1.11,2.33-2.26,3.44-3.45c0.93-0.99,0.9-2.33-0.01-3.35c-0.66-0.75-1.78-1.38-1.95-2.21
			c-0.15-0.77,0.81-1.71,1.05-2.64c0.3-1.18,0.87-1.68,2.09-1.45c0.34,0.07,0.71,0.02,1.07,0.01c1.78-0.04,2.68-0.93,2.75-2.7
			c0.06-1.58,0.06-1.56,1.66-1.47c0.62,0.03,0.88,0.32,0.91,0.9c0.01,0.23,0,0.46,0,0.68c0,14.31-0.01,28.61,0.02,42.92
			C90.89,69.07,90.69,69.33,89.78,69.33z M96.04,69.33c-2.24-0.05-2.24-0.01-2.24-2.3c0-14.04,0-28.09,0-42.13
			c0-2.14-1.02-3.62-2.82-4.01c-0.62-0.14-1.29-0.1-1.94-0.09c-0.48,0.01-0.73-0.07-0.85-0.63c-0.25-1.21-1.12-1.88-2.35-1.92
			c-0.81-0.02-1.63-0.03-2.44,0c-0.83,0.03-0.66-0.67-0.8-1.1c-0.07-0.21,0.28-0.17,0.46-0.17c3.51,0,7.02-0.05,10.53,0.03
			c2.1,0.05,3.38,1.56,3.38,3.74c0.01,7.93,0,15.86,0,23.8c0,7.93-0.01,15.86,0.02,23.8C96.98,69.07,96.85,69.35,96.04,69.33z"/>
	</g>
	<g>
		<linearGradient id="SVGID_2_" gradientUnits="userSpaceOnUse" x1="32.1821" y1="99.9448" x2="67.707" y2="99.9448">
			<stop  offset="0" style="stop-color:#693EAA"/>
			<stop  offset="1" style="stop-color:#64DFFF"/>
		</linearGradient>
		<path class="st3" d="M32.25,99.9c-0.03,0-0.04-0.01-0.07-0.01c0,0.04,0.01,0.07,0.01,0.11c11.84,0,23.67,0,35.51,0
			c0-0.04,0.01-0.07,0.01-0.11c-0.05,0-0.09,0.01-0.15,0.01C55.79,99.9,44.02,99.9,32.25,99.9z"/>
	</g>
	<g>
		<linearGradient id="SVGID_3_" gradientUnits="userSpaceOnUse" x1="45.1475" y1="77.0543" x2="54.7418" y2="77.0543">
			<stop  offset="0" style="stop-color:#693EAA"/>
			<stop  offset="1" style="stop-color:#64DFFF"/>
		</linearGradient>
		<path class="st4" d="M53.12,78.51c0.97-0.01,1.62-0.62,1.63-1.45c0.01-0.88-0.63-1.45-1.69-1.47c-1.01-0.01-2.01,0-3.02,0
			c-1.07,0-2.14-0.01-3.21,0c-1.05,0.02-1.69,0.6-1.67,1.48c0.02,0.83,0.66,1.43,1.64,1.44C48.89,78.53,51.01,78.53,53.12,78.51z"/>
	</g>
	<g>
		<linearGradient id="SVGID_4_" gradientUnits="userSpaceOnUse" x1="11.9825" y1="47.9038" x2="47.8083" y2="47.9038">
			<stop  offset="0" style="stop-color:#693EAA"/>
			<stop  offset="1" style="stop-color:#64DFFF"/>
		</linearGradient>
		<path class="st5" d="M45.55,43.89c-1.59,0.15-2.24-0.47-2.72-1.9c-0.27-0.81-0.2-1.21,0.39-1.71c0.67-0.58,1.3-1.2,1.27-2.13
			c0.01-0.61-0.17-1.1-0.54-1.49c-0.71-0.76-1.45-1.49-2.18-2.23c-1.54-1.54-2.63-1.57-4.11,0.02c-0.65,0.7-1.14,0.73-2.05,0.43
			c-1.38-0.45-1.82-1.13-1.7-2.55c0.12-1.4-0.88-2.31-2.28-2.35c-0.94-0.03-1.89-0.01-2.83-0.01c-2.2,0-2.99,0.73-2.91,2.91
			c0.04,0.99-0.29,1.38-1.21,1.8c-1.25,0.58-2.03,0.48-2.93-0.6c-0.96-1.14-2.24-1.07-3.33-0.03c-0.71,0.67-1.38,1.37-2.07,2.06
			c-1.39,1.4-1.44,2.57,0,3.91c0.75,0.7,0.92,1.21,0.5,2.26c-0.49,1.22-1.03,1.67-2.35,1.58c-1.59-0.11-2.46,0.83-2.51,2.43
			c-0.03,0.88-0.01,1.76-0.01,2.63c0,2.29,0.73,3.06,3.04,2.99c0.88-0.02,1.21,0.27,1.61,1.06c0.64,1.29,0.56,2.13-0.57,3.08
			c-1.08,0.91-1,2.24-0.02,3.27c0.69,0.73,1.42,1.43,2.13,2.14c1.36,1.35,2.54,1.39,3.83-0.01c0.72-0.78,1.27-0.97,2.35-0.52
			c1.22,0.5,1.62,1.08,1.54,2.37c-0.1,1.6,0.85,2.45,2.45,2.49c0.91,0.02,1.82,0.01,2.73,0c2.08-0.01,2.92-0.8,2.84-2.9
			c-0.03-0.97,0.24-1.39,1.18-1.81c1.25-0.55,2.02-0.52,2.94,0.58c0.96,1.15,2.24,1.07,3.33,0.04c0.71-0.67,1.39-1.37,2.07-2.06
			c1.42-1.43,1.47-2.56,0-3.9c-0.77-0.71-0.9-1.25-0.5-2.28c0.47-1.22,1.03-1.66,2.35-1.57c1.63,0.11,2.49-0.88,2.5-2.53
			c0.01-1.04,0.01-2.08,0-3.12C47.78,44.84,46.93,43.77,45.55,43.89z M44.85,48.78c-0.01,0.27-0.25,0.24-0.44,0.25
			c-0.46,0-0.91-0.01-1.36,0.01c-1.06,0.03-1.79,0.54-2.1,1.56c-0.35,1.12-0.8,2.18-1.34,3.22c-0.51,1-0.29,1.89,0.61,2.81
			c1.08,1.11,1.02,1.54-0.28,2.43c-0.22,0.15-0.32,0.13-0.47-0.03c-0.09-0.1-0.18-0.19-0.28-0.28c-1.79-1.75-2.03-1.78-4.23-0.71
			c-0.64,0.31-1.31,0.55-1.99,0.77c-1.45,0.47-1.93,1.1-1.94,2.63c0,0.29-0.03,0.59,0.01,0.88c0.05,0.49-0.17,0.64-0.62,0.58
			c-0.1-0.01-0.19,0-0.29,0c-1.31,0.01-1.31,0.01-1.32-1.26c-0.01-1.79-0.42-2.31-2.14-2.88c-0.7-0.23-1.4-0.52-2.06-0.86
			c-1.74-0.88-2.3-0.8-3.7,0.58c-0.26,0.26-0.54,0.83-0.86,0.65c-0.54-0.31-0.96-0.86-1.4-1.34c-0.12-0.14,0.08-0.28,0.19-0.39
			c0.29-0.3,0.6-0.59,0.89-0.9c0.85-0.92,0.98-1.73,0.4-2.84c-0.48-0.92-0.89-1.87-1.19-2.87c-0.37-1.24-1.06-1.73-2.36-1.76
			c-0.13,0-0.26,0.01-0.39,0c-0.4-0.06-1.03,0.22-1.16-0.17c-0.19-0.55-0.09-1.21-0.07-1.83c0.01-0.32,0.32-0.25,0.54-0.25
			c0.42-0.01,0.85,0,1.27-0.01c1.07-0.02,1.8-0.58,2.11-1.57c0.34-1.09,0.77-2.13,1.29-3.14c0.6-1.18,0.37-1.94-0.84-3.18
			c-0.26-0.26-0.83-0.55-0.66-0.84c0.32-0.54,0.87-0.96,1.35-1.39c0.14-0.13,0.28,0.07,0.4,0.18c0.3,0.3,0.59,0.6,0.9,0.89
			c0.86,0.81,1.72,0.97,2.76,0.43c0.98-0.51,1.99-0.94,3.05-1.26c1.23-0.38,1.66-1.15,1.69-2.73c0.01-0.4-0.22-1.03,0.16-1.16
			c0.55-0.19,1.21-0.09,1.83-0.07c0.26,0.01,0.22,0.27,0.23,0.45c0.01,0.39,0,0.78,0,1.17c0.02,1.26,0.55,2.02,1.75,2.38
			c0.78,0.23,1.54,0.5,2.27,0.86c2,1.01,2.43,0.94,4.02-0.6c0.22-0.21,0.41-0.75,0.79-0.48c0.52,0.36,0.93,0.89,1.41,1.37
			c-0.24,0.26-0.43,0.48-0.63,0.68c-1.55,1.57-1.61,2.01-0.62,4.01c0.3,0.61,0.55,1.24,0.76,1.89c0.53,1.66,1.08,2.08,2.79,2.12
			c0.43,0.01,1.09-0.26,1.25,0.17C45,47.5,44.87,48.17,44.85,48.78z"/>
	</g>
	<g>
		<linearGradient id="SVGID_5_" gradientUnits="userSpaceOnUse" x1="54.0126" y1="23.0665" x2="76.707" y2="23.0665">
			<stop  offset="0" style="stop-color:#693EAA"/>
			<stop  offset="1" style="stop-color:#64DFFF"/>
		</linearGradient>
		<path class="st6" d="M65.17,34.42c5,0.07,9.53-3.21,11.03-8c1.49-4.77-0.39-10.07-4.58-12.82c-2.81-1.84-5.88-2.31-9.13-1.53
			c-0.98,0.24-1.42,0.91-1.25,1.77c0.16,0.84,0.87,1.25,1.86,1.09c0.16-0.03,0.31-0.08,0.47-0.12c3.32-0.73,6.85,0.68,8.77,3.52
			c1.94,2.86,1.91,6.68-0.07,9.52c-1.97,2.83-5.5,4.19-8.81,3.4c-5.65-1.34-8.19-7.55-5.21-12.71c0.57-0.98,0.43-1.82-0.36-2.28
			c-0.78-0.45-1.53-0.2-2.12,0.73c-1.16,1.83-1.74,3.82-1.75,6.73C53.98,29.19,58.99,34.33,65.17,34.42z"/>
	</g>
	<g>
		<linearGradient id="SVGID_6_" gradientUnits="userSpaceOnUse" x1="59.4718" y1="23.0584" x2="71.2391" y2="23.0584">
			<stop  offset="0" style="stop-color:#693EAA"/>
			<stop  offset="1" style="stop-color:#64DFFF"/>
		</linearGradient>
		<path class="st7" d="M71.24,23.14c0.03-3.31-2.59-5.99-5.87-6c-3.2-0.01-5.84,2.59-5.89,5.78c-0.05,3.32,2.55,6.01,5.82,6.04
			C68.54,29,71.21,26.39,71.24,23.14z M62.4,23.06c0-1.63,1.35-2.98,2.96-2.98c1.62,0,2.95,1.36,2.95,2.99
			c0,1.63-1.34,2.98-2.96,2.98C63.73,26.04,62.4,24.69,62.4,23.06z"/>
	</g>
	<g>
		<linearGradient id="SVGID_7_" gradientUnits="userSpaceOnUse" x1="22.1641" y1="47.9015" x2="37.6474" y2="47.9015">
			<stop  offset="0" style="stop-color:#693EAA"/>
			<stop  offset="1" style="stop-color:#64DFFF"/>
		</linearGradient>
		<path class="st8" d="M30.02,40.14c-4.24-0.08-7.77,3.35-7.85,7.64c-0.09,4.25,3.32,7.77,7.62,7.88c4.16,0.1,7.77-3.36,7.86-7.54
			C37.74,43.79,34.33,40.22,30.02,40.14z M29.97,52.73c-2.63,0.06-4.85-2.12-4.88-4.78c-0.03-2.67,2.13-4.86,4.78-4.88
			c2.6-0.01,4.8,2.13,4.84,4.73C34.77,50.45,32.64,52.67,29.97,52.73z"/>
	</g>
</g>
</svg>
