<?xml version="1.0" encoding="utf-8"?>
<!-- Generator: Adobe Illustrator 24.3.0, SVG Export Plug-In . SVG Version: 6.00 Build 0)  -->
<svg version="1.1" id="Layer_1" xmlns="http://www.w3.org/2000/svg" xmlns:xlink="http://www.w3.org/1999/xlink" x="0px" y="0px"
	 viewBox="0 0 100 100" style="enable-background:new 0 0 100 100;" xml:space="preserve">
<style type="text/css">
	.st0{fill:#693EAA;}
	.st1{fill:#64DFFF;}
	.st2{fill:url(#SVGID_1_);}
	.st3{fill:url(#SVGID_2_);}
	.st4{fill:url(#SVGID_3_);}
	.st5{fill:url(#SVGID_4_);}
	.st6{fill:url(#SVGID_5_);}
	.st7{fill:url(#SVGID_6_);}
	.st8{fill:url(#SVGID_7_);}
	.st9{fill:url(#SVGID_8_);}
	.st10{fill:#FDFDFD;}
	.st11{fill:url(#SVGID_9_);}
	.st12{fill:url(#SVGID_10_);}
	.st13{fill:url(#SVGID_11_);}
	.st14{fill:url(#SVGID_12_);}
	.st15{fill:url(#SVGID_13_);}
	.st16{fill:url(#SVGID_14_);}
	.st17{fill:url(#SVGID_15_);}
	.st18{fill:url(#SVGID_16_);}
	.st19{fill:url(#SVGID_17_);}
	.st20{fill:url(#SVGID_18_);}
	.st21{fill:url(#SVGID_19_);}
</style>
<g>
	<g>
		<linearGradient id="SVGID_1_" gradientUnits="userSpaceOnUse" x1="-0.1432" y1="67.6331" x2="100.1432" y2="67.6331">
			<stop  offset="0" style="stop-color:#693EAA"/>
			<stop  offset="1" style="stop-color:#64DFFF"/>
		</linearGradient>
		<path class="st2" d="M99.95,88.86c-0.25-2.02-0.86-3.94-1.87-5.7c-3.15-5.49-7.82-8.74-14.15-9.5c-0.57,0.08-1.12,0.06-1.87-0.07
			c0.57-0.43,1.03-0.28,1.47-0.28c0.23-0.01,0.46,0,0.68-0.04c5.71-1.05,9.83-6.46,9.44-12.38c-0.38-5.79-5.27-10.6-11.03-10.87
			c-7.72-0.36-13.58,6.34-12.23,13.98c0.85,4.79,5.27,8.95,9.92,9.34c0.32-0.07,0.63-0.09,0.99,0.15c-0.52,0.34-1.04,0.24-1.55,0.2
			c-3.93,0.45-7.39,1.96-10.33,4.59c-0.58,0.52-0.88,0.51-1.32-0.1c-0.77-1.06-1.71-1.96-2.7-2.81c-3.75-3.22-8.07-5.15-13.02-5.61
			c-0.56,0.11-1.11,0.07-1.84-0.1c0.55-0.36,1-0.27,1.45-0.24c7.04-0.58,13.2-7.08,13.64-14.4c0.61-10-7.88-17.92-17.78-16.59
			c-7.17,0.96-12.67,6.71-13.46,14.06C33.65,59.35,38,66.19,44.61,68.6c1.16,0.42,2.37,0.64,3.7,0.92
			c-0.21,0.11-0.26,0.16-0.32,0.16c-6.55,0.63-11.94,3.46-16.13,8.53c-0.49,0.59-0.74,0.53-1.26,0.06
			c-2.95-2.64-6.41-4.16-10.35-4.61c-0.49,0-0.98,0-1.48,0c0.26-0.44,0.58-0.41,0.92-0.34c6.47-0.54,11.38-7.55,9.87-14.1
			c-1.49-6.42-7.86-10.46-14.1-8.93C8.89,51.9,5.07,58.24,6.72,64.76c1.14,4.5,5.46,8.3,9.74,8.55c0.44-0.04,0.87-0.1,1.43,0.15
			c-0.67,0.37-1.25,0.23-1.83,0.2C9.37,74.05,2.56,79.64,0.6,86.24c-0.8,2.72-0.75,5.47-0.74,8.24c0,1.79,0.7,2.5,2.49,2.5
			c31.76,0,63.52,0,95.29,0.01c1.22,0,2.07-0.42,2.51-1.58c0-2.09,0-4.18,0-6.27C99.99,89.12,99.97,89,99.95,88.86z M74.1,61.69
			c0.04-4.29,3.65-7.85,7.9-7.78c4.26,0.06,7.76,3.59,7.76,7.83c0,4.27-3.59,7.85-7.85,7.83C77.63,69.54,74.06,65.94,74.1,61.69z
			 M38.25,53.76c0.07-6.43,5.38-11.64,11.81-11.61c6.47,0.03,11.73,5.36,11.68,11.84c-0.05,6.47-5.39,11.72-11.86,11.66
			C43.42,65.59,38.18,60.24,38.25,53.76z M10.25,61.73c0-4.27,3.6-7.85,7.86-7.82c4.28,0.03,7.85,3.63,7.8,7.88
			c-0.05,4.29-3.66,7.84-7.91,7.78C13.73,69.5,10.24,65.97,10.25,61.73z M28.86,82.87c-1.49,3.02-2.23,6.24-2.33,9.6
			c-0.02,0.68-0.38,0.6-0.81,0.6c-3.56-0.01-7.11,0-10.67,0c-3.43,0-6.85-0.04-10.28,0.03c-0.91,0.02-1-0.28-1.03-1.08
			c-0.3-7.43,5.17-13.06,11.34-14.27c5.19-1.02,9.72,0.38,13.56,4.04C29.02,82.13,29.09,82.41,28.86,82.87z M68.69,93.09
			c-6.23-0.03-12.47-0.02-18.7-0.02c-6.2,0-12.4-0.02-18.61,0.02c-0.85,0.01-0.99-0.23-0.95-1.02
			c0.59-11.69,11.41-20.31,22.95-18.26c9.08,1.62,15.84,9.31,16.2,18.39C69.61,92.97,69.4,93.09,68.69,93.09z M95.44,93.06
			c-3.52,0.01-7.05,0.01-10.57,0.01c-3.52,0-7.05-0.02-10.57,0.01c-0.62,0.01-0.82-0.14-0.84-0.78c-0.12-3.26-0.82-6.38-2.28-9.32
			c-0.26-0.52-0.22-0.85,0.22-1.26c4.14-3.84,8.97-5.27,14.43-3.72c5.25,1.49,8.66,4.97,10.07,10.31c0.37,1.4,0.32,2.84,0.34,4.28
			C96.25,93.29,95.76,93.06,95.44,93.06z"/>
	</g>
	<g>
		<linearGradient id="SVGID_2_" gradientUnits="userSpaceOnUse" x1="34.2826" y1="18.0172" x2="65.581" y2="18.0172">
			<stop  offset="0" style="stop-color:#693EAA"/>
			<stop  offset="1" style="stop-color:#64DFFF"/>
		</linearGradient>
		<path class="st3" d="M40.42,21.79c0.37,0.36,0.56,0.67,0.45,1.26c-0.5,2.62-0.91,5.26-1.33,7.77c-0.08,1.75,1.45,2.7,2.98,1.93
			c2.18-1.1,4.35-2.22,6.48-3.41c0.68-0.38,1.18-0.4,1.85-0.02c2.11,1.17,4.25,2.26,6.38,3.38c0.81,0.43,1.63,0.53,2.38-0.07
			c0.71-0.56,0.84-1.32,0.68-2.2c-0.44-2.37-0.81-4.75-1.25-7.12c-0.12-0.67,0-1.14,0.53-1.62c1.74-1.62,3.42-3.32,5.13-4.97
			c0.68-0.66,1.11-1.38,0.78-2.35c-0.33-0.96-1.11-1.27-2.05-1.39c-2.39-0.32-4.77-0.69-7.16-1.01c-0.57-0.08-0.91-0.32-1.16-0.86
			c-1.04-2.21-2.13-4.39-3.19-6.59C51.51,3.67,50.96,3,49.94,3c-1.01,0-1.57,0.63-1.98,1.49c-1.05,2.2-2.17,4.37-3.19,6.58
			c-0.28,0.6-0.65,0.81-1.23,0.89c-2.39,0.33-4.77,0.69-7.16,1.01c-0.9,0.12-1.66,0.44-1.97,1.35c-0.33,0.94,0.06,1.69,0.75,2.35
			C36.92,18.37,38.65,20.09,40.42,21.79z M45.65,15.59c0.98-0.12,1.58-0.63,1.99-1.5c0.72-1.53,1.48-3.04,2.28-4.67
			c0.76,1.54,1.52,2.96,2.17,4.43c0.48,1.11,1.23,1.68,2.42,1.81c1.58,0.18,3.15,0.44,4.65,0.65c-1.02,1.09-1.99,2.27-3.11,3.29
			c-1.04,0.94-1.37,1.94-1.05,3.3c0.34,1.45,0.51,2.94,0.79,4.59c-1.28-0.67-2.48-1.16-3.54-1.87c-1.57-1.05-3-1.1-4.58-0.02
			c-1.07,0.72-2.28,1.22-3.59,1.9c0.31-1.88,0.57-3.58,0.89-5.27c0.17-0.9-0.13-1.57-0.74-2.2c-1.18-1.21-2.32-2.46-3.48-3.7
			C42.29,16.09,43.97,15.8,45.65,15.59z"/>
	</g>
	<g>
		<linearGradient id="SVGID_3_" gradientUnits="userSpaceOnUse" x1="4.865" y1="31.8512" x2="28.2749" y2="31.8512">
			<stop  offset="0" style="stop-color:#693EAA"/>
			<stop  offset="1" style="stop-color:#64DFFF"/>
		</linearGradient>
		<path class="st4" d="M8.81,34.31c0.7,0.59,0.74,1.19,0.58,1.97c-0.3,1.57-0.55,3.14-0.78,4.45c-0.05,1.86,1.39,2.8,2.88,2.08
			c1.52-0.74,3.01-1.54,4.49-2.36c0.42-0.23,0.74-0.23,1.16,0c1.43,0.78,2.88,1.52,4.31,2.28c0.78,0.42,1.56,0.49,2.29-0.06
			c0.74-0.55,0.89-1.32,0.74-2.18c-0.28-1.57-0.52-3.15-0.84-4.71c-0.11-0.53,0.02-0.84,0.39-1.19c1.14-1.07,2.25-2.18,3.38-3.26
			c0.66-0.63,1.06-1.35,0.75-2.27c-0.32-0.95-1.08-1.3-2.03-1.42c-1.49-0.18-2.96-0.44-4.45-0.62c-0.62-0.07-0.96-0.35-1.22-0.91
			c-0.65-1.42-1.36-2.81-2.05-4.21c-0.39-0.79-0.99-1.31-1.91-1.28c-0.87,0.02-1.44,0.51-1.81,1.28c-0.68,1.4-1.43,2.77-2.06,4.2
			c-0.28,0.64-0.69,0.86-1.31,0.94c-1.49,0.19-2.97,0.42-4.45,0.62c-0.86,0.11-1.59,0.44-1.9,1.3c-0.31,0.89-0.04,1.65,0.64,2.3
			C6.7,32.27,7.69,33.37,8.81,34.31z M16.57,26.98c0.75,2.9,2.52,4.22,5.53,4.04c-2.42,1.63-3.27,3.67-1.96,6.45
			c-1.44-0.37-2.33-1.44-3.59-1.43c-1.26,0.01-2.15,1.02-3.59,1.47c1.29-2.81,0.52-4.87-1.95-6.5
			C14.06,31.23,15.77,29.82,16.57,26.98z"/>
	</g>
	<g>
		<linearGradient id="SVGID_4_" gradientUnits="userSpaceOnUse" x1="71.4615" y1="31.8514" x2="94.8675" y2="31.8514">
			<stop  offset="0" style="stop-color:#693EAA"/>
			<stop  offset="1" style="stop-color:#64DFFF"/>
		</linearGradient>
		<path class="st5" d="M75.43,34.35c0.64,0.55,0.72,1.12,0.57,1.88c-0.31,1.56-0.56,3.14-0.79,4.44c-0.08,1.93,1.37,2.88,2.91,2.12
			c1.52-0.74,3-1.55,4.49-2.36c0.38-0.21,0.68-0.22,1.07,0c1.45,0.8,2.93,1.55,4.4,2.33c0.75,0.4,1.49,0.46,2.21-0.05
			c0.75-0.53,0.94-1.29,0.79-2.16c-0.28-1.6-0.53-3.21-0.85-4.81c-0.1-0.48,0.01-0.78,0.36-1.11c1.16-1.09,2.29-2.23,3.44-3.33
			c0.66-0.63,1.03-1.36,0.71-2.27c-0.32-0.91-1.05-1.26-1.96-1.37c-1.49-0.19-2.96-0.44-4.45-0.62c-0.64-0.08-1.02-0.36-1.29-0.96
			c-0.63-1.39-1.33-2.75-2-4.12c-0.38-0.79-0.96-1.33-1.88-1.33c-0.91,0-1.5,0.52-1.88,1.32c-0.68,1.4-1.42,2.78-2.05,4.2
			c-0.27,0.6-0.65,0.81-1.24,0.89c-1.49,0.19-2.97,0.43-4.45,0.62c-0.9,0.12-1.66,0.43-1.96,1.35c-0.3,0.9,0.01,1.64,0.69,2.29
			C73.33,32.3,74.33,33.38,75.43,34.35z M83.15,26.99c0.79,2.86,2.53,4.23,5.53,3.89c-0.79,1.22-2.09,1.74-2.48,2.97
			c-0.38,1.2,0.37,2.35,0.26,3.77c-2.19-1.93-4.39-1.99-6.71-0.06c1.01-2.77,0.43-4.91-2.15-6.52
			C80.61,31.2,82.38,29.87,83.15,26.99z"/>
	</g>
	<g>
		<linearGradient id="SVGID_5_" gradientUnits="userSpaceOnUse" x1="51.517" y1="69.5691" x2="52.3806" y2="69.5691">
			<stop  offset="0" style="stop-color:#693EAA"/>
			<stop  offset="1" style="stop-color:#64DFFF"/>
		</linearGradient>
		<path class="st6" d="M51.52,69.54c0.25,0.08,0.57,0.08,0.86,0.2c-0.12-0.12-0.37-0.1-0.39-0.34
			C51.83,69.51,51.68,69.62,51.52,69.54z"/>
	</g>
	<g>
		<linearGradient id="SVGID_6_" gradientUnits="userSpaceOnUse" x1="16.0701" y1="73.4854" x2="16.823" y2="73.4854">
			<stop  offset="0" style="stop-color:#693EAA"/>
			<stop  offset="1" style="stop-color:#64DFFF"/>
		</linearGradient>
		<path class="st7" d="M16.47,73.31c-0.02,0.25-0.3,0.2-0.4,0.35c0.25-0.1,0.52-0.12,0.75-0.18C16.7,73.48,16.58,73.4,16.47,73.31z"
			/>
	</g>
	<g>
		<linearGradient id="SVGID_7_" gradientUnits="userSpaceOnUse" x1="83.1516" y1="73.4854" x2="83.9316" y2="73.4854">
			<stop  offset="0" style="stop-color:#693EAA"/>
			<stop  offset="1" style="stop-color:#64DFFF"/>
		</linearGradient>
		<path class="st8" d="M83.93,73.66c-0.1-0.15-0.38-0.1-0.4-0.35c-0.15,0.13-0.32,0.19-0.38,0.18
			C83.31,73.54,83.63,73.55,83.93,73.66z"/>
	</g>
	<g>
		<linearGradient id="SVGID_8_" gradientUnits="userSpaceOnUse" x1="19.4546" y1="73.4957" x2="20.2505" y2="73.4957">
			<stop  offset="0" style="stop-color:#693EAA"/>
			<stop  offset="1" style="stop-color:#64DFFF"/>
		</linearGradient>
		<path class="st9" d="M19.62,73.54c0.2,0.09,0.44-0.01,0.64,0.12c-0.19-0.11-0.37-0.23-0.56-0.34c-0.08,0.05-0.2,0.08-0.23,0.14
			C19.43,73.54,19.56,73.52,19.62,73.54z"/>
	</g>
	<g>
		<linearGradient id="SVGID_9_" gradientUnits="userSpaceOnUse" x1="79.7512" y1="73.4957" x2="80.4872" y2="73.4957">
			<stop  offset="0" style="stop-color:#693EAA"/>
			<stop  offset="1" style="stop-color:#64DFFF"/>
		</linearGradient>
		<path class="st11" d="M80.47,73.43c-0.02-0.05-0.1-0.07-0.15-0.1c-0.19,0.11-0.37,0.23-0.56,0.34c0.17-0.12,0.38-0.04,0.55-0.11
			C80.36,73.54,80.55,73.62,80.47,73.43z"/>
	</g>
	<g>
		<linearGradient id="SVGID_10_" gradientUnits="userSpaceOnUse" x1="55.57" y1="84.4196" x2="64.3232" y2="84.4196">
			<stop  offset="0" style="stop-color:#693EAA"/>
			<stop  offset="1" style="stop-color:#64DFFF"/>
		</linearGradient>
		<path class="st12" d="M58.74,80.1c-0.38-0.26-0.8-0.43-1.06-0.41c-1.05,0.03-1.65,0.43-1.95,1.2c-0.35,0.89-0.13,1.71,0.64,2.27
			c1.82,1.33,3.25,2.96,4.33,4.95c0.59,1.09,1.71,1.32,2.67,0.75c0.91-0.54,1.22-1.61,0.7-2.64C62.83,83.72,61.04,81.68,58.74,80.1z
			"/>
	</g>
	<g>
		<linearGradient id="SVGID_11_" gradientUnits="userSpaceOnUse" x1="48.0538" y1="79.3626" x2="51.9488" y2="79.3626">
			<stop  offset="0" style="stop-color:#693EAA"/>
			<stop  offset="1" style="stop-color:#64DFFF"/>
		</linearGradient>
		<path class="st13" d="M50.09,77.42c-1.04-0.06-2.02,0.88-2.03,1.93c-0.01,1.02,0.89,1.94,1.91,1.96c1.01,0.02,1.95-0.86,1.99-1.88
			C51.99,78.42,51.11,77.47,50.09,77.42z"/>
	</g>
</g>
</svg>
