<svg width="300" height="174" viewBox="0 0 300 174" fill="none" xmlns="http://www.w3.org/2000/svg">
<path d="M254.288 67.7286C252.675 67.7286 251.085 67.8139 249.518 67.98C249.801 66.3632 249.958 64.706 249.958 63.0128C249.958 47.2439 237.171 34.4571 221.402 34.4571C214.998 34.4571 209.087 36.568 204.322 40.1251C196.763 25.9326 181.816 16.2719 164.615 16.2719C158.695 16.2719 153.041 17.4172 147.862 19.5011C137.914 7.58125 122.949 0 106.21 0C76.2575 0 51.9732 24.2844 51.9732 54.2368C51.9732 55.93 52.0541 57.6007 52.2068 59.2535C51.2456 59.1996 50.28 59.1682 49.3098 59.1682C22.0792 59.1682 0 81.2429 0 108.478C0 135.709 22.0747 157.788 49.3098 157.788C51.4522 157.788 53.5676 157.649 55.638 157.384C64.0727 167.035 76.4686 173.135 90.2928 173.135C102.608 173.135 113.796 168.293 122.051 160.411C129.205 165.001 137.716 167.66 146.847 167.66C156.405 167.66 165.284 164.745 172.641 159.755C181.313 167.835 192.941 172.78 205.732 172.78C220.365 172.78 233.484 166.308 242.386 156.072C246.176 157.11 250.169 157.667 254.292 157.667C279.124 157.667 299.254 137.537 299.254 112.704C299.25 87.8585 279.12 67.7286 254.288 67.7286Z" fill="#25BCDE" fill-opacity="0.06"/>
</svg>
