<?xml version="1.0" encoding="UTF-8"?>
<svg width="1233px" height="490px" viewBox="0 0 1233 490" version="1.1" xmlns="http://www.w3.org/2000/svg" xmlns:xlink="http://www.w3.org/1999/xlink">
    <defs>
        <rect id="path-1" x="0" y="0" width="1148.99515" height="1997.228"></rect>
    </defs>
    <g id="Desktop" stroke="none" stroke-width="1" fill="none" fill-rule="evenodd" opacity="0.598958333">
        <g id="A-New-Way-of-Urban-Living" transform="translate(-766.000000, -661.000000)">
            <g id="Content" transform="translate(0.693001, 0.860837)">
                <g id="Group-163" transform="translate(999.306999, 574.672427) scale(1, -1) rotate(90.000000) translate(-999.306999, -574.672427) translate(424.809425, -423.941571)">
                    <g id="Combined-Shape">
                        <mask id="mask-2" fill="white">
                            <use xlink:href="#path-1"></use>
                        </mask>
                        <g id="Mask"></g>
                        <path d="M241.194631,610.765851 C239.059081,608.622572 236.536701,607.099391 233.85222,606.19631 C253.136028,608.871104 268.395572,624.164424 271.065316,643.484698 C270.168852,640.79391 268.647318,638.26799 266.508084,636.12348 L241.194631,610.765851 Z M233.851606,692.913742 C236.537315,692.011891 239.058467,690.487481 241.194017,688.344201 L266.508698,662.986572 C268.647932,660.843293 270.168238,658.316142 271.06593,655.625355 C268.396186,674.945629 253.135414,690.238949 233.851606,692.913742 Z M189.072718,636.123972 C186.940852,638.25987 185.419319,640.783329 184.514258,643.465504 C187.192599,624.153843 202.45337,608.871596 221.728583,606.196803 C219.044102,607.098653 216.522949,608.621833 214.382487,610.766343 L189.072718,636.123972 Z M214.382978,688.344324 C216.522212,690.487604 219.044593,692.010784 221.727846,692.913865 C202.452633,690.239072 187.191862,674.956825 184.514749,655.645163 C185.41981,658.328569 186.940115,660.849568 189.073209,662.986695 L214.382978,688.344324 Z M130.771095,934.802268 C128.635545,932.658989 126.113164,931.135809 123.428683,930.232728 C142.712492,932.907521 157.972035,948.200841 160.64178,967.521115 C159.745315,964.830327 158.223782,962.304407 156.084548,960.159897 L130.771095,934.802268 Z M123.428069,1016.95139 C126.113778,1016.04831 128.634931,1014.5239 130.770481,1012.38062 L156.085162,987.02299 C158.224396,984.87971 159.744701,982.35256 160.642394,979.663002 C157.972649,998.983276 142.711878,1014.27537 123.428069,1016.95139 Z M78.6493045,960.16039 C76.5174385,962.296287 74.9959051,964.819746 74.0920726,967.503152 C76.7691854,948.19026 92.0299566,932.908013 111.306397,930.23322 C108.620688,931.135071 106.099535,932.658251 103.959073,934.802761 L78.6493045,960.16039 Z M103.959442,1012.38086 C106.098676,1014.52414 108.621056,1016.04732 111.305537,1016.95164 C92.029097,1014.27561 76.7683258,998.994596 74.092441,979.681704 C74.9962736,982.365109 76.5165789,984.886108 78.649673,987.023236 L103.959442,1012.38086 Z M-38.8077932,1081.66883 C-38.8077932,1057.23151 -19.0339992,1037.42032 5.35720043,1037.42032 C29.7484001,1037.42032 49.520966,1057.23151 49.520966,1081.66883 C49.520966,1106.10616 29.7484001,1125.91734 5.35720043,1125.91734 C-19.0339992,1125.91734 -38.8077932,1106.10616 -38.8077932,1081.66883 Z M-38.6183076,865.505934 C-38.6183076,841.068611 -18.8445136,821.257425 5.54668599,821.257425 C29.9378856,821.257425 49.7116796,841.068611 49.7116796,865.505934 C49.7116796,889.943257 29.9378856,909.754443 5.54668599,909.754443 C-18.8445136,909.754443 -38.6183076,889.943257 -38.6183076,865.505934 Z M74.1088966,1081.66883 C74.1088966,1057.23151 93.8826906,1037.42032 118.272662,1037.42032 C142.663862,1037.42032 162.437656,1057.23151 162.437656,1081.66883 C162.437656,1106.10616 142.663862,1125.91734 118.272662,1125.91734 C93.8826906,1125.91734 74.1088966,1106.10616 74.1088966,1081.66883 Z M74.1088966,541.559579 C74.1088966,517.122256 93.8826906,497.31107 118.272662,497.31107 C142.663862,497.31107 162.437656,517.122256 162.437656,541.559579 C162.437656,565.996902 142.663862,585.808088 118.272662,585.808088 C93.8826906,585.808088 74.1088966,565.996902 74.1088966,541.559579 Z M-37.7860694,973.592182 C-37.7860694,949.154859 -18.0122754,929.343673 6.37892423,929.343673 C30.7701239,929.343673 50.5439179,949.154859 50.5439179,973.592182 C50.5439179,998.029505 30.7701239,1017.84069 6.37892423,1017.84069 C-18.0122754,1017.84069 -37.7860694,998.029505 -37.7860694,973.592182 Z M-38.8077932,757.530173 C-38.8077932,733.09285 -19.0339992,713.282894 5.35720043,713.282894 C29.7484001,713.282894 49.520966,733.09285 49.520966,757.530173 C49.520966,781.967496 29.7484001,801.778681 5.35720043,801.778681 C-19.0339992,801.778681 -38.8077932,781.967496 -38.8077932,757.530173 Z M36.0531236,625.738048 C40.7577196,621.024556 44.1114788,615.459658 46.1082612,609.540417 C40.2014205,652.148862 6.53488447,685.861836 -35.9919126,691.763852 C-30.0691074,689.771906 -24.5048881,686.410574 -19.7855556,681.682318 L36.0531236,625.738048 Z M-19.78531,510.53038 C-24.5058705,505.799662 -30.0688618,502.439561 -35.991667,500.448846 C6.53513008,506.350862 40.2016661,540.063836 46.1085068,582.67105 C44.1117245,576.75304 40.7579652,571.188141 36.0533692,566.474649 L-19.78531,510.53038 Z M141.257395,895.581116 C145.970587,900.311833 151.533579,903.671934 157.456384,905.66388 C114.913622,899.761864 81.2470864,866.024283 75.3562102,823.399844 C77.3358,829.333849 80.6907873,834.90859 85.4101197,839.636846 L141.257395,895.581116 Z M157.456875,714.347644 C151.53407,716.33959 145.969851,719.700921 141.257886,724.429178 L85.4106109,780.373447 C80.6900505,785.104164 77.3362912,790.677675 75.3567014,796.61168 C81.2463496,753.988471 114.912886,720.24966 157.456875,714.347644 Z M256.247619,839.637216 C260.952215,834.924954 264.305975,829.358825 266.302757,823.440814 C260.395916,866.048029 226.72938,899.762233 184.201355,905.664249 C190.125388,903.672303 195.689608,900.310972 200.40894,895.581485 L256.247619,839.637216 Z M200.409309,724.429547 C195.688748,719.70006 190.125757,716.339959 184.201724,714.348013 C226.729749,720.250029 260.396285,753.963003 266.301897,796.571447 C264.306343,790.652207 260.952584,785.087308 256.247988,780.373816 L200.409309,724.429547 Z M161.627891,649.555764 C161.627891,673.993087 141.854097,693.803043 117.462897,693.803043 C93.0716973,693.803043 73.2979033,673.993087 73.2979033,649.555764 C73.2979033,625.118441 93.0716973,605.307256 117.462897,605.307256 C141.854097,605.307256 161.627891,625.118441 161.627891,649.555764 Z M-36.3924971,433.473331 C-36.3924971,409.036008 -16.6187031,389.224822 7.77249655,389.224822 C32.1636962,389.224822 51.9374902,409.036008 51.9374902,433.473331 C51.9374902,457.910654 32.1636962,477.72184 7.77249655,477.72184 C-16.6187031,477.72184 -36.3924971,457.910654 -36.3924971,433.473331 Z M182.44932,433.473331 C182.44932,409.036008 202.223114,389.224822 226.614314,389.224822 C251.005513,389.224822 270.779307,409.036008 270.779307,433.473331 C270.779307,457.910654 251.005513,477.72184 226.614314,477.72184 C202.223114,477.72184 182.44932,457.910654 182.44932,433.473331 Z M103.574576,394.910542 L78.2611232,420.268171 C76.121889,422.412681 74.6003556,424.938601 73.7038912,427.629388 C76.3736358,408.309114 91.633179,393.015794 110.916988,390.341001 C108.232507,391.244082 105.710126,392.767262 103.574576,394.910542 Z M110.917479,477.058433 C91.6336702,474.383639 76.372899,459.090319 73.7031544,439.770045 C74.6008468,442.460833 76.1211522,444.987983 78.2603864,447.131263 L103.575067,472.488892 C105.710617,474.632171 108.23177,476.156582 110.917479,477.058433 Z M155.696366,420.268663 L130.386598,394.911034 C128.246136,392.766524 125.724983,391.243344 123.039274,390.341493 C142.315714,393.016286 157.576486,408.298533 160.253598,427.610195 C159.349766,424.92802 157.828232,422.40456 155.696366,420.268663 Z M130.386229,472.489015 L155.695998,447.131386 C157.829092,444.994258 159.349397,442.472029 160.25323,439.789854 C157.577345,459.101516 142.316574,474.383762 123.040134,477.058556 C125.724615,476.155475 128.246995,474.632294 130.386229,472.489015 Z M-34.6979338,325.388314 C-34.6979338,300.950991 -14.9241398,281.139805 9.46705985,281.139805 C33.8570314,281.139805 53.6308255,300.950991 53.6308255,325.388314 C53.6308255,349.824407 33.8570314,369.635593 9.46705985,369.635593 C-14.9241398,369.635593 -34.6979338,349.824407 -34.6979338,325.388314 Z M105.267911,286.824294 L79.9544585,312.181923 C77.8152243,314.327663 76.2936909,316.852353 75.3972265,319.543141 C78.0669711,300.222867 93.3265143,284.929547 112.610323,282.254754 C109.925842,283.157835 107.403461,284.681015 105.267911,286.824294 Z M112.610937,368.973415 C93.3271283,366.297392 78.0663571,351.005302 75.3966124,331.685028 C76.2943049,334.374585 77.8146102,336.901736 79.9538444,339.045015 L105.268525,364.402644 C107.404075,366.547154 109.925228,368.070334 112.610937,368.973415 Z M157.389702,312.182415 L132.079933,286.824786 C129.939471,284.680277 127.418318,283.157096 124.733837,282.255246 C144.00905,284.930039 159.269821,300.212286 161.946934,319.525178 C161.043101,316.841772 159.521568,314.318313 157.389702,312.182415 Z M132.079565,364.402767 L157.389333,339.045138 C159.522427,336.908011 161.042733,334.387012 161.946565,331.703606 C159.27068,351.016498 144.009909,366.297515 124.734697,368.973538 C127.41795,368.069227 129.94033,366.547277 132.079565,364.402767 Z M34.0455346,247.755706 C38.7587268,252.485192 44.3217182,255.846524 50.2445233,257.837239 C7.70176182,251.935223 -25.9647742,218.197643 -31.8556504,175.573203 C-29.8760606,181.507208 -26.5210733,187.08318 -21.8017409,191.811436 L34.0455346,247.755706 Z M50.2450145,66.5221106 C44.3222094,68.5140564 38.75799,71.8741575 34.0460258,76.6036444 L-21.8012497,132.547914 C-26.5218101,137.277401 -29.8755694,142.850911 -31.8551592,148.784917 C-25.965511,106.161707 7.701025,72.4241265 50.2450145,66.5221106 Z M149.035759,191.811805 C153.740355,187.098313 157.094114,181.533415 159.090896,175.614174 C153.184056,218.222619 119.51752,251.935593 76.9894946,257.837608 C82.9135278,255.846893 88.4777472,252.484331 93.1970796,247.756075 L149.035759,191.811805 Z M93.197448,76.6041366 C88.4768875,71.8734193 82.9138962,68.5145485 76.989863,66.5226028 C119.517888,72.4246186 153.184424,106.137592 159.091265,148.746037 C157.094482,142.826797 153.740723,137.261898 149.036127,132.548406 L93.197448,76.6041366 Z M273.314214,216.581078 C273.314214,241.018401 253.54042,260.829587 229.14922,260.829587 C204.75802,260.829587 184.984226,241.018401 184.984226,216.581078 C184.984226,192.143755 204.75802,172.332569 229.14922,172.332569 C253.54042,172.332569 273.314214,192.143755 273.314214,216.581078 Z M382.008311,108.86972 C382.008311,133.307043 362.234517,153.118229 337.844545,153.118229 C313.453345,153.118229 293.679551,133.307043 293.679551,108.86972 C293.679551,84.4323971 313.453345,64.6212112 337.844545,64.6212112 C362.234517,64.6212112 382.008311,84.4323971 382.008311,108.86972 Z M214.887822,144.841996 C217.023373,146.985275 219.545753,148.508456 222.230234,149.411537 C202.946426,146.736744 187.686882,131.443423 185.017138,112.123149 C185.913602,114.813937 187.435136,117.339857 189.57437,119.484367 L214.887822,144.841996 Z M222.230848,62.6941052 C219.545139,63.5959559 217.023987,65.1203665 214.888437,67.263646 L189.573756,92.6212749 C187.434522,94.7645544 185.914216,97.2917048 185.016524,99.9824925 C187.686268,80.6622185 202.94704,65.3688983 222.230848,62.6941052 Z M267.009736,119.483875 C269.141602,117.347978 270.663135,114.824518 271.566968,112.142343 C268.889855,131.454005 253.629084,146.736251 234.352643,149.411045 C237.038352,148.509194 239.559505,146.986014 241.699967,144.841504 L267.009736,119.483875 Z M241.699476,67.2635229 C239.560242,65.1202435 237.037861,63.5970632 234.35338,62.6939822 C253.629821,65.3687753 268.890592,80.6510222 271.566477,99.9626838 C270.662644,97.2792782 269.142339,94.7582796 267.009245,92.6211519 L241.699476,67.2635229 Z M1.17758871,39.0326445 C-18.10622,36.3566211 -33.3669912,21.0645313 -36.0367358,1.74425727 C-35.1390434,4.43504498 -33.618738,6.96096503 -31.4795038,9.10547484 L-6.16482306,34.4618735 C-4.02927295,36.6063833 -1.50812036,38.1295635 1.17758871,39.0326445 Z M1.17758871,-48.1517926 C-1.50812036,-47.2487116 -4.02927295,-45.7255314 -6.16482306,-43.5810216 L-31.4795038,-18.224623 C-33.618738,-16.0801131 -35.1390434,-13.5541931 -36.0367358,-10.8634054 C-33.3669912,-30.1836794 -18.10622,-45.4757692 1.17758871,-48.1517926 Z M20.6463392,34.4619965 L45.9561078,9.10559788 C48.0892019,6.96723984 49.6095072,4.44624121 50.5133398,1.76283564 C47.837455,21.0757275 32.5766838,36.3567441 13.3002433,39.0327675 C15.9847244,38.1284562 18.507105,36.6065063 20.6463392,34.4619965 Z M21.7464115,-42.9506246 C19.6071773,-45.0951344 17.0847967,-46.6170843 14.4003157,-47.5213957 C33.6767561,-44.8453723 48.9375274,-29.5643557 51.6134122,-10.2514638 C50.7095796,-12.9348693 49.1892742,-15.455868 47.0561802,-17.594226 L21.7464115,-42.9506246 Z M324.065273,-43.1152462 L298.751821,-17.7588476 C296.612586,-15.6131074 295.091053,-13.0871874 294.193361,-10.39763 C296.864333,-29.717904 312.123876,-45.0099938 331.407685,-47.6860173 C328.723204,-46.7817059 326.200823,-45.259756 324.065273,-43.1152462 Z M331.407071,39.0326445 C312.12449,36.3566211 296.863719,21.0645313 294.192747,1.74425727 C295.091667,4.43504498 296.611972,6.96096503 298.751207,9.10547484 L324.064659,34.4618735 C326.201437,36.6063833 328.72259,38.1295635 331.407071,39.0326445 Z M376.187187,-17.7583555 L350.877418,-43.1147541 C348.736956,-45.2604942 346.215803,-46.7824441 343.530094,-47.6855251 C362.806535,-45.0095017 378.066078,-29.7284851 380.744419,-10.4155932 C379.839358,-13.0989988 378.319053,-15.6212278 376.187187,-17.7583555 Z M350.876927,34.4619965 L376.186695,9.10559788 C378.31979,6.96723984 379.838867,4.44624121 380.743927,1.76283564 C378.066815,21.0757275 362.807271,36.3567441 343.530831,39.0327675 C346.215312,38.1284562 348.737693,36.6065063 350.876927,34.4619965 Z M433.064782,-42.9506246 L407.751329,-17.594226 C405.612095,-15.4484858 404.090562,-12.9225658 403.192869,-10.2330084 C405.863842,-29.5532825 421.123385,-44.8453723 440.407194,-47.5213957 C437.722713,-46.6170843 435.200332,-45.0951344 433.064782,-42.9506246 Z M439.422252,39.0327675 C420.139672,36.3567441 404.8789,21.0646543 402.207928,1.74438031 C403.106848,4.43516801 404.627154,6.96108806 406.766388,9.10559788 L432.07984,34.4619965 C434.216619,36.6065063 436.737771,38.1296865 439.422252,39.0327675 Z M484.294803,-17.6657976 L458.985034,-43.0221962 C456.844572,-45.1679364 454.323419,-46.6898862 451.63771,-47.5929673 C470.914151,-44.9169438 486.173694,-29.6359272 488.852035,-10.3230353 C487.946974,-13.0064409 486.426669,-15.5286699 484.294803,-17.6657976 Z M458.891003,34.4429271 L484.200771,9.08652853 C486.333865,6.94817049 487.852943,4.42717186 488.758003,1.74376629 C486.080891,21.0566582 470.821347,36.3376748 451.544907,39.0136982 C454.229388,38.1093868 456.751769,36.587437 458.891003,34.4429271 Z M273.16906,-3.2728868 C273.16906,21.1644362 253.396494,40.9756221 229.005295,40.9756221 C204.614095,40.9756221 184.840301,21.1644362 184.840301,-3.2728868 C184.840301,-27.7102098 204.614095,-47.5213957 229.005295,-47.5213957 C253.396494,-47.5213957 273.16906,-27.7102098 273.16906,-3.2728868 Z M162.39185,-4.32656334 C162.39185,20.1107596 142.618056,39.9219455 118.226857,39.9219455 C93.8356569,39.9219455 74.0618629,20.1107596 74.0618629,-4.32656334 C74.0618629,-28.7638863 93.8356569,-48.5750722 118.226857,-48.5750722 C142.618056,-48.5750722 162.39185,-28.7638863 162.39185,-4.32656334 Z M21.8423805,1150.1612 C19.7068304,1148.01669 17.1844497,1146.49474 14.4999687,1145.59043 C33.7837774,1148.26645 49.0433206,1163.55854 51.7130652,1182.87881 C50.8166008,1180.18926 49.2950674,1177.66334 47.1558332,1175.51883 L21.8423805,1150.1612 Z M21.5563715,1227.73709 L46.8698242,1202.37946 C49.0090584,1200.23495 50.5305918,1197.70903 51.4270562,1195.01947 C48.7573116,1214.33974 33.4977684,1229.63183 14.2139597,1232.30786 C16.8984408,1231.40355 19.4208214,1229.8816 21.5563715,1227.73709 Z M-30.2795328,1175.51932 C-32.4113988,1177.65522 -33.9329322,1180.17744 -34.8379929,1182.86085 C-32.159652,1163.54796 -16.8988808,1148.26694 2.37633165,1145.59092 C-0.308149387,1146.494 -2.82930198,1148.01595 -4.96976422,1150.16169 L-30.2795328,1175.51932 Z M-32.344471,1202.34304 L-7.0347024,1227.70067 C-4.89424016,1229.84641 -2.37308757,1231.36836 0.311393469,1232.27144 C-18.963819,1229.59542 -34.2245902,1214.3144 -36.9029311,1195.00151 C-35.9978704,1197.68491 -34.476337,1200.20714 -32.344471,1202.34304 Z M241.194631,1042.88015 C239.059081,1040.73564 236.536701,1039.21369 233.85222,1038.30938 C253.136028,1040.9854 268.395572,1056.27749 271.065316,1075.59777 C270.168852,1072.90821 268.647318,1070.38229 266.508084,1068.23778 L241.194631,1042.88015 Z M240.908622,1120.45604 L266.222075,1095.09841 C268.361309,1092.9539 269.882843,1090.42798 270.779307,1087.73842 C268.109563,1107.0587 252.850019,1122.35079 233.566211,1125.02681 C236.250692,1124.1225 238.773072,1122.60055 240.908622,1120.45604 Z M189.072718,1068.23827 C186.940852,1070.37417 185.419319,1072.8964 184.514258,1075.5798 C187.192599,1056.26691 202.45337,1040.98589 221.728583,1038.30987 C219.044102,1039.21295 216.522949,1040.7349 214.382487,1042.88064 L189.072718,1068.23827 Z M187.00778,1095.06199 L212.317549,1120.41962 C214.458011,1122.56536 216.979163,1124.08731 219.663644,1124.99039 C200.388432,1122.31437 185.127661,1107.03335 182.44932,1087.72046 C183.354381,1090.40387 184.875914,1092.92609 187.00778,1095.06199 Z" fill="#D5E1E8" mask="url(#mask-2)"></path>
                    </g>
                </g>
            </g>
        </g>
    </g>
</svg>
